<?xml version="1.0" ?><svg id="Icons" viewBox="0 0 48 48" xmlns="http://www.w3.org/2000/svg"><defs><style>.cls-1{fill:#525252;}.cls-1,.cls-11,.cls-12,.cls-5{stroke:#45413c;stroke-linecap:round;stroke-linejoin:round;}.cls-2{fill:#6dd627;}.cls-3{fill:#a86c4d;}.cls-4{fill:#de926a;}.cls-5{fill:none;}.cls-12,.cls-6{fill:#45413c;}.cls-6{opacity:0.15;}.cls-7{fill:#ff87af;}.cls-8{fill:#ff6196;}.cls-11,.cls-9{fill:#ffcebf;}.cls-10{fill:#ffb59e;}.cls-13{fill:#ff6242;}.cls-14{fill:#ffa694;}.cls-15{fill:#adc4d9;}.cls-16{fill:#c0dceb;}.cls-17{fill:#fff;}</style></defs><title/><g data-name="&lt;Group&gt;" id="_Group_"><rect class="cls-1" data-name="&lt;Rectangle&gt;" height="25.21" id="_Rectangle_" rx="2" ry="2" width="38.67" x="4.67" y="4"/><rect class="cls-2" data-name="&lt;Rectangle&gt;" height="2.67" id="_Rectangle_2" rx="0.5" ry="0.5" width="8.73" x="7.56" y="6.59"/><rect class="cls-2" data-name="&lt;Rectangle&gt;" height="2.67" id="_Rectangle_3" rx="0.5" ry="0.5" width="17.41" x="17.62" y="6.59"/><rect class="cls-2" data-name="&lt;Rectangle&gt;" height="2.67" id="_Rectangle_4" rx="0.5" ry="0.5" width="4.42" x="36.02" y="6.59"/><rect class="cls-2" data-name="&lt;Rectangle&gt;" height="2.67" id="_Rectangle_5" rx="0.5" ry="0.5" width="2.11" x="7.56" y="10.93"/><rect class="cls-2" data-name="&lt;Rectangle&gt;" height="2.67" id="_Rectangle_6" rx="0.5" ry="0.5" width="9.04" x="11.07" y="10.93"/><rect class="cls-2" data-name="&lt;Rectangle&gt;" height="2.67" id="_Rectangle_7" rx="0.5" ry="0.5" width="4.52" x="21.46" y="10.93"/><rect class="cls-2" data-name="&lt;Rectangle&gt;" height="2.67" id="_Rectangle_8" rx="0.5" ry="0.5" width="13.26" x="27.17" y="10.93"/><rect class="cls-2" data-name="&lt;Rectangle&gt;" height="2.67" id="_Rectangle_9" rx="0.5" ry="0.5" width="10.06" x="7.42" y="15.27"/><rect class="cls-2" data-name="&lt;Rectangle&gt;" height="2.67" id="_Rectangle_10" rx="0.5" ry="0.5" width="21.87" x="18.57" y="15.27"/><rect class="cls-2" data-name="&lt;Rectangle&gt;" height="2.67" id="_Rectangle_11" rx="0.5" ry="0.5" width="6.76" x="7.42" y="19.61"/><rect class="cls-2" data-name="&lt;Rectangle&gt;" height="2.67" id="_Rectangle_12" rx="0.5" ry="0.5" width="15.26" x="15.68" y="19.61"/><rect class="cls-2" data-name="&lt;Rectangle&gt;" height="2.67" id="_Rectangle_13" rx="0.5" ry="0.5" width="2.65" x="32.18" y="19.61"/><rect class="cls-2" data-name="&lt;Rectangle&gt;" height="2.67" id="_Rectangle_14" rx="0.5" ry="0.5" width="4.42" x="36.02" y="19.61"/><rect class="cls-2" data-name="&lt;Rectangle&gt;" height="2.67" id="_Rectangle_15" rx="0.5" ry="0.5" width="24.76" x="7.42" y="23.95"/><rect class="cls-2" data-name="&lt;Rectangle&gt;" height="2.67" id="_Rectangle_16" rx="0.5" ry="0.5" width="6.94" x="33.5" y="23.95"/></g><path class="cls-3" d="M24,6.32A10.88,10.88,0,0,1,34.88,17.19v12a1.23,1.23,0,0,1-.77,1.14h0a27.09,27.09,0,0,1-20.22,0h0a1.23,1.23,0,0,1-.77-1.14v-12A10.88,10.88,0,0,1,24,6.32Z" data-name="&lt;Path&gt;" id="_Path_"/><path class="cls-4" d="M24,6.32A10.88,10.88,0,0,0,13.12,17.19v3a10.88,10.88,0,0,1,21.76,0v-3A10.88,10.88,0,0,0,24,6.32Z" data-name="&lt;Path&gt;" id="_Path_2"/><path class="cls-5" d="M24,6.32A10.88,10.88,0,0,1,34.88,17.19v12a1.23,1.23,0,0,1-.77,1.14h0a27.09,27.09,0,0,1-20.22,0h0a1.23,1.23,0,0,1-.77-1.14v-12A10.88,10.88,0,0,1,24,6.32Z" data-name="&lt;Path&gt;" id="_Path_3"/><ellipse class="cls-6" cx="24" cy="45" data-name="&lt;Ellipse&gt;" id="_Ellipse_" rx="15" ry="1.5"/><path class="cls-7" d="M24,31.22h0A11.88,11.88,0,0,1,35.88,43.1V45a0,0,0,0,1,0,0H12.12a0,0,0,0,1,0,0V43.1A11.88,11.88,0,0,1,24,31.22Z" data-name="&lt;Rectangle&gt;" id="_Rectangle_17"/><path class="cls-8" d="M24,31.22h0A11.88,11.88,0,0,0,12.12,43.1V45h.13A11.88,11.88,0,0,1,24,34.8h0A11.88,11.88,0,0,1,35.75,45h.13V43.1A11.88,11.88,0,0,0,24,31.22Z" data-name="&lt;Path&gt;" id="_Path_4"/><path class="cls-5" d="M24,31.22h0A11.88,11.88,0,0,1,35.88,43.1V45a0,0,0,0,1,0,0H12.12a0,0,0,0,1,0,0V43.1A11.88,11.88,0,0,1,24,31.22Z" data-name="&lt;Rectangle&gt;" id="_Rectangle_18"/><rect class="cls-9" data-name="&lt;Rectangle&gt;" height="7.94" id="_Rectangle_19" rx="2.54" ry="2.54" width="5.09" x="21.46" y="27.17"/><path class="cls-10" d="M24,27.17a2.54,2.54,0,0,0-2.54,2.54v.6a2.54,2.54,0,0,0,5.08,0v-.59A2.54,2.54,0,0,0,24,27.17Z" data-name="&lt;Path&gt;" id="_Path_5"/><rect class="cls-5" data-name="&lt;Rectangle&gt;" height="7.94" id="_Rectangle_20" rx="2.54" ry="2.54" width="5.09" x="21.46" y="27.17"/><line class="cls-5" data-name="&lt;Path&gt;" id="_Path_6" x1="17.06" x2="17.06" y1="45" y2="42.59"/><line class="cls-5" data-name="&lt;Path&gt;" id="_Path_7" x1="30.94" x2="30.94" y1="45" y2="42.59"/><g data-name="&lt;Group&gt;" id="_Group_2"><path class="cls-11" d="M33.07,19.47a8.77,8.77,0,0,1-5.68-5L26.77,13a15.92,15.92,0,0,1-9.95,6.18l-1.88.34a1.81,1.81,0,1,0,0,3.62h.11a9,9,0,0,0,17.9,0h.12a1.81,1.81,0,1,0,0-3.62Z" data-name="&lt;Path&gt;" id="_Path_8"/></g><path class="cls-12" d="M18.57,20.91a.77.77,0,1,0,.77-.77A.76.76,0,0,0,18.57,20.91Z" data-name="&lt;Path&gt;" id="_Path_9"/><path class="cls-12" d="M29.43,20.91a.77.77,0,1,1-.77-.77A.76.76,0,0,1,29.43,20.91Z" data-name="&lt;Path&gt;" id="_Path_10"/><g data-name="&lt;Group&gt;" id="_Group_3"><g data-name="&lt;Group&gt;" id="_Group_4"><g data-name="&lt;Group&gt;" id="_Group_5"><g data-name="&lt;Group&gt;" id="_Group_6"><g data-name="&lt;Group&gt;" id="_Group_7"><g data-name="&lt;Group&gt;" id="_Group_8"><g data-name="&lt;Group&gt;" id="_Group_9"><path class="cls-13" d="M21.16,25.6a.44.44,0,0,0-.33.16.42.42,0,0,0-.1.35,3.32,3.32,0,0,0,6.54,0,.42.42,0,0,0-.1-.35.42.42,0,0,0-.33-.16Z" data-name="&lt;Path&gt;" id="_Path_11"/><path class="cls-14" d="M24,27a4,4,0,0,0-2.52.77,3.36,3.36,0,0,0,5,0A4,4,0,0,0,24,27Z" data-name="&lt;Path&gt;" id="_Path_12"/></g></g></g></g></g></g></g><g data-name="&lt;Group&gt;" id="_Group_10"><path class="cls-5" d="M21.16,25.6a.44.44,0,0,0-.33.16.42.42,0,0,0-.1.35,3.32,3.32,0,0,0,6.54,0,.42.42,0,0,0-.1-.35.42.42,0,0,0-.33-.16Z" data-name="&lt;Path&gt;" id="_Path_13"/></g><ellipse class="cls-10" cx="18.06" cy="24.19" data-name="&lt;Ellipse&gt;" id="_Ellipse_2" rx="1" ry="0.6"/><ellipse class="cls-10" cx="29.94" cy="24.19" data-name="&lt;Ellipse&gt;" id="_Ellipse_3" rx="1" ry="0.6"/><path class="cls-15" d="M32.52,45h-17a.76.76,0,0,1-.77-.62l-1.21-9.9a.73.73,0,0,1,.78-.77H33.72a.73.73,0,0,1,.78.77l-1.21,9.9A.76.76,0,0,1,32.52,45Z" data-name="&lt;Path&gt;" id="_Path_14"/><path class="cls-16" d="M14.28,36.94H33.72a.79.79,0,0,1,.46.15l.32-2.61a.73.73,0,0,0-.78-.77H14.28a.73.73,0,0,0-.78.77l.32,2.61A.79.79,0,0,1,14.28,36.94Z" data-name="&lt;Path&gt;" id="_Path_15"/><path class="cls-5" d="M32.52,45h-17a.76.76,0,0,1-.77-.62l-1.21-9.9a.73.73,0,0,1,.78-.77H33.72a.73.73,0,0,1,.78.77l-1.21,9.9A.76.76,0,0,1,32.52,45Z" data-name="&lt;Path&gt;" id="_Path_16"/><path class="cls-17" d="M25.19,39.36a1.43,1.43,0,0,1,.24-.85.65.65,0,0,0-.37-.24.81.81,0,0,0-.95.33.83.83,0,0,0-1-.33c-.5.1-.75.82-.57,1.59s.74,1.32,1.25,1.22a.7.7,0,0,0,.28-.15.61.61,0,0,0,.27.15c.41.08.85-.26,1.1-.8A1.33,1.33,0,0,1,25.19,39.36Z" data-name="&lt;Path&gt;" id="_Path_17"/><ellipse class="cls-17" cx="24.61" cy="37.65" data-name="&lt;Path&gt;" id="_Path_18" rx="0.62" ry="0.24" transform="translate(-19.92 31.25) rotate(-48.65)"/></svg>