<?xml version="1.0" encoding="utf-8"?>
<!-- Generator: Adobe Illustrator 16.0.0, SVG Export Plug-In . SVG Version: 6.00 Build 0)  -->
<!DOCTYPE svg PUBLIC "-//W3C//DTD SVG 1.1//EN" "http://www.w3.org/Graphics/SVG/1.1/DTD/svg11.dtd">
<svg version="1.1" id="Layer_1" xmlns="http://www.w3.org/2000/svg" xmlns:xlink="http://www.w3.org/1999/xlink" x="0px" y="0px"
	 width="691.465px" height="137.993px" viewBox="0 0 691.465 137.993" enable-background="new 0 0 691.465 137.993"
	 xml:space="preserve">
<g>
	<g>
		<path fill="#1E1E1E" d="M133.267,98.955c0.953-0.197,1.873-0.953,1.873-1.807V79.736h-4.566c-1.38,0-2.169,0.525-2.661,2.432
			h-0.428l-0.065-4.074c1.117,0.065,2.431,0.197,9.1,0.197c6.67,0,7.951-0.132,9.067-0.197l-0.065,4.074h-0.427
			c-0.46-1.873-1.249-2.432-2.661-2.432h-4.566v17.412c0,0.854,0.952,1.576,1.938,1.807v0.427c-0.395,0-2.793-0.065-3.352-0.065
			c-0.492,0-2.76,0.065-3.187,0.065V98.955z"/>
		<path fill="#1E1E1E" d="M147.489,98.988c0.69-0.296,1.445-0.657,1.445-1.281V80.558c0-1.051-0.591-1.544-1.675-1.773v-0.361
			l3.811-1.512h0.361v10.677c1.183-1.116,2.661-2.135,4.698-2.135c2.825,0,4.468,1.807,4.468,4.008v8.246
			c0,0.656,0.689,0.952,1.479,1.281v0.394c-0.428,0-2.333-0.065-2.76-0.065s-2.267,0.065-2.661,0.065v-0.394
			c0.689-0.296,1.445-0.657,1.445-1.281v-6.406c0-2.333-0.92-4.173-3.252-4.173c-1.479,0-2.76,0.986-3.417,1.808v8.771
			c0,0.656,0.69,0.952,1.479,1.281v0.394c-0.427,0-2.332-0.065-2.76-0.065c-0.427,0-2.267,0.065-2.661,0.065V98.988z"/>
		<path fill="#1E1E1E" d="M176.53,97.51c-0.723,0.854-2.201,2.103-4.797,2.103c-4.632,0-7.096-2.825-7.096-7.097
			c0-4.336,2.989-7.062,6.57-7.062c3.482,0,5.749,2.464,5.585,5.289c0,0.229-0.033,0.525-0.099,0.689h-9.33
			c-0.427,3.778,1.676,6.604,4.796,6.604c1.774,0,2.99-0.296,3.812-1.149L176.53,97.51z M174.132,90.314
			c0.229-1.643-0.821-3.679-2.891-3.679c-2.169,0-3.45,2.004-3.746,3.679H174.132z"/>
		<path fill="#1E1E1E" d="M202.842,92.154c0-0.821-0.361-1.478-2.005-1.741v-0.427c0.395,0,2.562,0.065,3.121,0.065
			c0.493,0,2.103-0.065,2.53-0.065v0.427c-0.69,0.197-0.92,0.986-0.92,1.84v6.341c0,0-0.854,0.065-2.497,0.559
			c-0.92,0.263-2.628,0.559-4.698,0.559c-6.701,0-11.892-3.942-11.892-10.973c0-6.637,4.796-10.842,11.301-10.842
			c2.004,0,3.942,0.657,4.796,0.854c0.92,0.197,1.38,0.229,1.479,0.229l0.197,3.417h-0.427c-0.46-0.92-1.183-1.643-2.004-2.136
			c-1.15-0.689-2.333-1.051-3.91-1.051c-4.993,0-8.442,3.909-8.442,9.133c0,5.814,3.548,10.053,9.265,10.053
			c2.004,0,3.515-0.854,4.106-1.216V92.154z"/>
		<path fill="#1E1E1E" d="M208.49,98.988c0.689-0.296,1.445-0.657,1.445-1.281V89.1c0-1.052-0.592-1.544-1.676-1.774v-0.361
			l3.68-1.511h0.361c0.033,0.624,0.132,2.464,0.132,2.464c0.821-1.084,1.807-2.464,3.844-2.464c0.755,0,1.478,0.196,2.103,0.46
			v2.989h-0.428c-0.525-0.953-1.347-1.676-2.431-1.676c-1.938,0-3.088,1.445-3.088,3.022v7.458c0,0.656,0.689,0.952,1.478,1.281
			v0.394c-0.427,0-2.332-0.065-2.759-0.065c-0.428,0-2.268,0.065-2.661,0.065V98.988z"/>
		<path fill="#1E1E1E" d="M220.315,86.109c1.249-0.361,2.694-0.656,4.633-0.656c3.909,0,4.697,2.004,4.697,4.205v6.833
			c0,1.051,0.329,1.314,0.723,1.314c0.23,0,0.592-0.033,0.756-0.132l0.23,0.525c0,0-0.69,0.361-1.38,0.821
			c-0.526,0.361-1.216,0.92-1.216,0.92c-0.46-0.427-1.019-1.149-1.347-2.069c-0.953,1.051-2.497,1.741-4.238,1.741
			c-2.497,0-4.271-1.183-4.271-3.844c0-2.497,2.365-3.778,4.764-4.205c0.656-0.099,2.759-0.132,3.482-0.132v-2.135
			c0-1.479-0.92-2.694-2.924-2.694c-1.61,0-2.694,0.788-3.482,2.168h-0.428V86.109z M227.149,92.483h-1.938
			c-1.938,0-3.646,1.051-3.646,3.153c0,1.512,1.019,2.398,2.267,2.398c1.313,0,2.628-0.723,3.318-1.84V92.483z"/>
		<path fill="#1E1E1E" d="M247.647,98.199c0,0-0.69,0.361-1.38,0.821c-0.526,0.361-1.216,0.92-1.216,0.92
			c-0.46-0.427-1.019-1.149-1.347-2.069c-0.953,1.051-2.793,1.741-4.83,1.741c-3.351,0-5.683-3.22-5.683-6.899
			c0-3.876,2.464-7.26,6.143-7.26c1.676,0,3.121,0.591,4.107,1.675v-6.57c0-1.051-0.592-1.544-1.676-1.773v-0.361l3.811-1.512h0.361
			v19.58c0,1.051,0.329,1.314,0.723,1.314c0.23,0,0.592-0.033,0.756-0.132L247.647,98.199z M243.442,89.592
			c-0.23-1.643-1.906-2.661-3.713-2.661c-2.562,0-3.876,2.728-3.876,5.421c0,2.924,1.544,5.684,4.271,5.684
			c1.281,0,2.661-0.592,3.318-1.774V89.592z"/>
		<path fill="#1E1E1E" d="M250.897,89.1c0-1.052-0.591-1.544-1.675-1.774v-0.361l3.811-1.511h0.361v8.312
			c0,2.332,0.493,4.172,2.825,4.172c1.479,0,2.76-0.985,3.417-1.807V89.1c0-1.052-0.592-1.544-1.676-1.774v-0.361l3.812-1.511h0.361
			v11.038c0,1.051,0.328,1.314,0.723,1.314c0.229,0,0.591-0.033,0.755-0.132l0.23,0.525c0,0-0.69,0.361-1.38,0.821
			c-0.525,0.361-1.216,0.92-1.216,0.92c-0.46-0.427-1.347-1.313-1.511-2.529c-1.15,1.149-2.76,2.201-4.797,2.201
			c-2.825,0-4.041-1.807-4.041-4.008V89.1z"/>
		<path fill="#1E1E1E" d="M267.617,86.109c1.249-0.361,2.694-0.656,4.633-0.656c3.909,0,4.697,2.004,4.697,4.205v6.833
			c0,1.051,0.329,1.314,0.723,1.314c0.23,0,0.592-0.033,0.756-0.132l0.23,0.525c0,0-0.69,0.361-1.38,0.821
			c-0.526,0.361-1.216,0.92-1.216,0.92c-0.46-0.427-1.019-1.149-1.347-2.069c-0.953,1.051-2.497,1.741-4.238,1.741
			c-2.497,0-4.271-1.183-4.271-3.844c0-2.497,2.365-3.778,4.764-4.205c0.656-0.099,2.759-0.132,3.482-0.132v-2.135
			c0-1.479-0.92-2.694-2.924-2.694c-1.61,0-2.694,0.788-3.482,2.168h-0.428V86.109z M274.451,92.483h-1.938
			c-1.938,0-3.646,1.051-3.646,3.153c0,1.512,1.018,2.398,2.267,2.398c1.313,0,2.628-0.723,3.318-1.84V92.483z"/>
		<path fill="#1E1E1E" d="M282.268,86.931h-2.036v-0.788l1.773-0.525c0.953-0.854,1.413-2.168,1.676-3.713h1.084v3.778h4.041v1.248
			h-4.041v8.41c0,1.741,0.559,2.333,1.577,2.333c0.985,0,1.609-0.493,2.036-0.953l0.526,0.493c-0.361,0.689-1.643,2.398-3.516,2.398
			c-1.577,0-3.121-0.756-3.121-3.844V86.931z"/>
		<path fill="#1E1E1E" d="M303.062,97.51c-0.723,0.854-2.201,2.103-4.797,2.103c-4.632,0-7.096-2.825-7.096-7.097
			c0-4.336,2.989-7.062,6.57-7.062c3.482,0,5.749,2.464,5.585,5.289c0,0.229-0.033,0.525-0.099,0.689h-9.33
			c-0.427,3.778,1.676,6.604,4.796,6.604c1.774,0,2.99-0.296,3.812-1.149L303.062,97.51z M300.664,90.314
			c0.229-1.643-0.821-3.679-2.891-3.679c-2.169,0-3.45,2.004-3.746,3.679H300.664z"/>
		<path fill="#1E1E1E" d="M313.408,95.078h0.428c0.229,0.92,0.854,1.906,1.544,2.365c0.985,0.657,2.562,0.953,3.712,0.953
			c2.529,0,4.566-0.953,4.566-3.613c0-1.183-0.296-2.3-1.314-2.99c-1.708-1.183-4.106-2.004-6.241-3.088
			c-1.774-0.887-3.187-2.201-3.187-4.895c0-4.106,3.384-5.914,7.424-5.914c1.643,0,3.516,0.46,5.158,0.395l0.164,3.909h-0.427
			c-0.263-0.821-0.92-1.609-1.61-2.069c-0.985-0.624-2.365-0.92-3.548-0.92c-2.529,0-4.435,1.314-4.435,3.515
			c0,1.774,0.854,2.826,2.037,3.516c1.905,1.117,4.468,2.004,6.373,3.187c1.38,0.854,2.3,2.07,2.3,4.106
			c0,3.909-2.924,6.177-7.097,6.177c-1.938,0-3.745-0.428-5.716-0.986L313.408,95.078z"/>
		<path fill="#1E1E1E" d="M340.575,97.181c-0.723,0.854-2.529,2.432-5.125,2.432c-4.632,0-7.096-2.825-7.096-7.097
			c0-4.5,3.055-7.062,7.03-7.062c1.38,0,3.351,0.295,4.599,0.656v2.793h-0.427c-0.788-1.38-2.136-2.267-4.073-2.267
			c-2.76,0-4.468,2.201-4.468,5.519c0,3.68,2.004,5.881,4.861,5.881c1.774,0,3.318-0.624,4.14-1.479L340.575,97.181z"/>
		<path fill="#1E1E1E" d="M342.972,98.988c0.69-0.296,1.445-0.657,1.445-1.281V80.558c0-1.051-0.591-1.544-1.675-1.773v-0.361
			l3.811-1.512h0.361v10.677c1.183-1.116,2.661-2.135,4.698-2.135c2.825,0,4.468,1.807,4.468,4.008v8.246
			c0,0.656,0.689,0.952,1.479,1.281v0.394c-0.428,0-2.333-0.065-2.76-0.065s-2.267,0.065-2.661,0.065v-0.394
			c0.689-0.296,1.445-0.657,1.445-1.281v-6.406c0-2.333-0.92-4.173-3.252-4.173c-1.479,0-2.76,0.986-3.417,1.808v8.771
			c0,0.656,0.69,0.952,1.479,1.281v0.394c-0.427,0-2.332-0.065-2.76-0.065c-0.427,0-2.267,0.065-2.661,0.065V98.988z"/>
		<path fill="#1E1E1E" d="M359.856,92.549c0-4.073,2.857-7.096,6.898-7.096s6.899,3.022,6.899,7.096
			c0,4.106-2.793,7.063-6.899,7.063C362.682,99.612,359.856,96.655,359.856,92.549z M370.993,92.516c0-2.693-1.216-5.88-4.238-5.88
			s-4.237,3.187-4.237,5.88c0,2.694,1.215,5.914,4.237,5.914S370.993,95.21,370.993,92.516z"/>
		<path fill="#1E1E1E" d="M375.789,92.549c0-4.073,2.857-7.096,6.898-7.096s6.899,3.022,6.899,7.096
			c0,4.106-2.793,7.063-6.899,7.063C378.614,99.612,375.789,96.655,375.789,92.549z M386.926,92.516c0-2.693-1.216-5.88-4.238-5.88
			s-4.237,3.187-4.237,5.88c0,2.694,1.215,5.914,4.237,5.914S386.926,95.21,386.926,92.516z"/>
		<path fill="#1E1E1E" d="M391.49,98.988c0.689-0.296,1.445-0.657,1.445-1.281V80.558c0-1.051-0.592-1.544-1.676-1.773v-0.361
			l3.812-1.512h0.361v20.796c0,0.656,0.689,0.952,1.478,1.281v0.394c-0.427,0-2.332-0.065-2.759-0.065
			c-0.428,0-2.268,0.065-2.661,0.065V98.988z"/>
		<path fill="#1E1E1E" d="M405.681,92.549c0-4.073,2.857-7.096,6.898-7.096s6.899,3.022,6.899,7.096
			c0,4.106-2.793,7.063-6.899,7.063C408.506,99.612,405.681,96.655,405.681,92.549z M416.817,92.516c0-2.693-1.216-5.88-4.238-5.88
			s-4.237,3.187-4.237,5.88c0,2.694,1.215,5.914,4.237,5.914S416.817,95.21,416.817,92.516z"/>
		<path fill="#1E1E1E" d="M422.072,98.988c0.69-0.296,1.445-0.657,1.445-1.281V86.931h-1.872v-0.919l1.872-0.329v-4.073
			c0-3.121,2.3-4.698,4.238-4.698c1.248,0,2.3,0.395,3.22,0.657v2.661h-0.428c-0.656-1.15-1.215-2.136-2.727-2.136
			c-0.821,0-1.807,0.887-1.807,2.661v4.928h3.581v1.248h-3.581v10.776c0,0.656,0.887,1.018,1.807,1.281v0.394
			c-0.427,0-2.661-0.065-3.088-0.065s-2.267,0.065-2.661,0.065V98.988z"/>
		<path fill="#1E1E1E" d="M435.966,98.955c1.216-0.427,1.577-1.052,2.037-2.201l6.604-16.327c0.295-0.723,0.755-2.398,0.755-2.398
			h1.709c0,0,0.427,1.676,0.689,2.398l6.11,16.327c0.46,1.216,0.92,1.873,2.136,2.201v0.427c-0.493,0-2.431-0.065-2.924-0.065
			s-2.365,0.065-2.858,0.065v-0.427c0.888-0.296,1.084-0.788,0.985-1.38c-0.032-0.263-0.295-1.019-0.394-1.248l-1.249-3.187h-8.377
			l-1.117,2.727c-0.131,0.296-0.46,1.445-0.492,1.609c-0.132,0.69,0.263,1.183,1.183,1.479v0.427c-0.395,0-1.774-0.065-2.201-0.065
			c-0.428,0-2.07,0.065-2.596,0.065V98.955z M449.074,91.728l-3.548-9.363l-3.778,9.363H449.074z"/>
		<path fill="#1E1E1E" d="M456.76,98.988c0.689-0.296,1.445-0.657,1.445-1.281V89.1c0-1.052-0.592-1.544-1.676-1.774v-0.361
			l3.68-1.511h0.361c0.033,0.624,0.132,2.464,0.132,2.464c0.821-1.084,1.807-2.464,3.844-2.464c0.755,0,1.478,0.196,2.103,0.46
			v2.989h-0.428c-0.525-0.953-1.347-1.676-2.431-1.676c-1.938,0-3.088,1.445-3.088,3.022v7.458c0,0.656,0.689,0.952,1.478,1.281
			v0.394c-0.427,0-2.332-0.065-2.759-0.065c-0.428,0-2.268,0.065-2.661,0.065V98.988z"/>
		<path fill="#1E1E1E" d="M469.932,86.931h-2.036v-0.788l1.773-0.525c0.953-0.854,1.413-2.168,1.676-3.713h1.084v3.778h4.041v1.248
			h-4.041v8.41c0,1.741,0.559,2.333,1.577,2.333c0.985,0,1.609-0.493,2.036-0.953l0.526,0.493c-0.361,0.689-1.643,2.398-3.516,2.398
			c-1.577,0-3.121-0.756-3.121-3.844V86.931z"/>
		<path fill="#1E1E1E" d="M479.359,96.064h0.427c0.92,1.643,1.972,2.365,3.68,2.365c1.873,0,2.891-0.69,2.891-1.905
			c0-0.789-0.394-1.314-1.084-1.643l-4.073-2.005c-1.314-0.656-2.136-1.675-2.136-3.285c0-2.693,2.432-4.139,5.026-4.139
			c1.348,0,3.022,0.328,4.14,0.656v2.793h-0.427c-0.723-1.281-1.938-2.267-3.646-2.267c-1.61,0-2.629,0.854-2.629,2.069
			c0,1.052,0.395,1.577,1.479,2.103l4.14,2.004c0.723,0.361,1.609,1.248,1.609,2.76c0,2.596-2.037,4.041-5.256,4.041
			c-1.348,0-3.022-0.329-4.14-0.657V96.064z"/>
		<path fill="#1E1E1E" d="M500.021,86.109c1.249-0.361,2.694-0.656,4.633-0.656c3.909,0,4.697,2.004,4.697,4.205v6.833
			c0,1.051,0.329,1.314,0.723,1.314c0.23,0,0.592-0.033,0.756-0.132l0.23,0.525c0,0-0.69,0.361-1.38,0.821
			c-0.526,0.361-1.216,0.92-1.216,0.92c-0.46-0.427-1.019-1.149-1.347-2.069c-0.953,1.051-2.497,1.741-4.238,1.741
			c-2.497,0-4.271-1.183-4.271-3.844c0-2.497,2.365-3.778,4.764-4.205c0.656-0.099,2.759-0.132,3.482-0.132v-2.135
			c0-1.479-0.92-2.694-2.924-2.694c-1.61,0-2.694,0.788-3.482,2.168h-0.428V86.109z M506.855,92.483h-1.938
			c-1.938,0-3.646,1.051-3.646,3.153c0,1.512,1.018,2.398,2.267,2.398c1.313,0,2.628-0.723,3.318-1.84V92.483z"/>
		<path fill="#1E1E1E" d="M512.8,98.988c0.689-0.296,1.445-0.657,1.445-1.281V89.1c0-1.052-0.592-1.544-1.676-1.774v-0.361
			l3.68-1.511h0.361l0.132,2.135c1.183-1.116,2.66-2.135,4.697-2.135c2.825,0,4.468,1.807,4.468,4.008v8.246
			c0,0.656,0.69,0.952,1.479,1.281v0.394c-0.427,0-2.332-0.065-2.76-0.065c-0.427,0-2.267,0.065-2.661,0.065v-0.394
			c0.69-0.296,1.446-0.657,1.446-1.281v-6.406c0-2.333-0.92-4.173-3.253-4.173c-1.479,0-2.76,0.986-3.416,1.808v8.771
			c0,0.656,0.689,0.952,1.478,1.281v0.394c-0.427,0-2.332-0.065-2.759-0.065c-0.428,0-2.268,0.065-2.661,0.065V98.988z"/>
		<path fill="#1E1E1E" d="M543.679,98.199c0,0-0.69,0.361-1.38,0.821c-0.526,0.361-1.216,0.92-1.216,0.92
			c-0.46-0.427-1.019-1.149-1.347-2.069c-0.953,1.051-2.793,1.741-4.83,1.741c-3.351,0-5.683-3.22-5.683-6.899
			c0-3.876,2.464-7.26,6.143-7.26c1.676,0,3.121,0.591,4.107,1.675v-6.57c0-1.051-0.592-1.544-1.676-1.773v-0.361l3.811-1.512h0.361
			v19.58c0,1.051,0.329,1.314,0.723,1.314c0.23,0,0.592-0.033,0.756-0.132L543.679,98.199z M539.474,89.592
			c-0.23-1.643-1.906-2.661-3.713-2.661c-2.562,0-3.876,2.728-3.876,5.421c0,2.924,1.544,5.684,4.271,5.684
			c1.281,0,2.661-0.592,3.318-1.774V89.592z"/>
		<path fill="#1E1E1E" d="M552.678,95.078h0.428c0.229,0.92,0.854,1.906,1.544,2.365c0.985,0.657,2.562,0.953,3.712,0.953
			c2.529,0,4.566-0.953,4.566-3.613c0-1.183-0.296-2.3-1.314-2.99c-1.708-1.183-4.106-2.004-6.241-3.088
			c-1.774-0.887-3.187-2.201-3.187-4.895c0-4.106,3.384-5.914,7.424-5.914c1.643,0,3.516,0.46,5.158,0.395l0.164,3.909h-0.427
			c-0.263-0.821-0.92-1.609-1.61-2.069c-0.985-0.624-2.365-0.92-3.548-0.92c-2.529,0-4.435,1.314-4.435,3.515
			c0,1.774,0.854,2.826,2.037,3.516c1.905,1.117,4.468,2.004,6.373,3.187c1.38,0.854,2.3,2.07,2.3,4.106
			c0,3.909-2.924,6.177-7.097,6.177c-1.938,0-3.745-0.428-5.716-0.986L552.678,95.078z"/>
		<path fill="#1E1E1E" d="M579.845,97.181c-0.723,0.854-2.529,2.432-5.125,2.432c-4.632,0-7.096-2.825-7.096-7.097
			c0-4.5,3.055-7.062,7.03-7.062c1.38,0,3.351,0.295,4.599,0.656v2.793h-0.427c-0.788-1.38-2.136-2.267-4.073-2.267
			c-2.76,0-4.468,2.201-4.468,5.519c0,3.68,2.004,5.881,4.861,5.881c1.774,0,3.318-0.624,4.14-1.479L579.845,97.181z"/>
		<path fill="#1E1E1E" d="M582.669,98.988c0.689-0.296,1.445-0.657,1.445-1.281V89.1c0-1.052-0.592-1.544-1.676-1.774v-0.361
			l3.811-1.511h0.361v12.254c0,0.656,0.69,0.952,1.479,1.281v0.394c-0.427,0-2.332-0.065-2.76-0.065
			c-0.427,0-2.267,0.065-2.66,0.065V98.988z M585.264,80.032c0.788,0,1.479,0.689,1.479,1.445c0,0.789-0.69,1.445-1.479,1.445
			s-1.511-0.656-1.511-1.445C583.753,80.722,584.476,80.032,585.264,80.032z"/>
		<path fill="#1E1E1E" d="M602.347,97.51c-0.723,0.854-2.201,2.103-4.797,2.103c-4.632,0-7.096-2.825-7.096-7.097
			c0-4.336,2.989-7.062,6.57-7.062c3.482,0,5.749,2.464,5.585,5.289c0,0.229-0.033,0.525-0.099,0.689h-9.33
			c-0.427,3.778,1.676,6.604,4.796,6.604c1.774,0,2.99-0.296,3.812-1.149L602.347,97.51z M599.948,90.314
			c0.229-1.643-0.821-3.679-2.891-3.679c-2.169,0-3.45,2.004-3.746,3.679H599.948z"/>
		<path fill="#1E1E1E" d="M605.006,98.988c0.689-0.296,1.445-0.657,1.445-1.281V89.1c0-1.052-0.592-1.544-1.676-1.774v-0.361
			l3.68-1.511h0.361l0.132,2.135c1.183-1.116,2.66-2.135,4.697-2.135c2.825,0,4.468,1.807,4.468,4.008v8.246
			c0,0.656,0.69,0.952,1.479,1.281v0.394c-0.427,0-2.332-0.065-2.76-0.065c-0.427,0-2.267,0.065-2.661,0.065v-0.394
			c0.69-0.296,1.446-0.657,1.446-1.281v-6.406c0-2.333-0.92-4.173-3.253-4.173c-1.479,0-2.76,0.986-3.416,1.808v8.771
			c0,0.656,0.689,0.952,1.478,1.281v0.394c-0.427,0-2.332-0.065-2.759-0.065c-0.428,0-2.268,0.065-2.661,0.065V98.988z"/>
		<path fill="#1E1E1E" d="M633.651,97.181c-0.723,0.854-2.529,2.432-5.125,2.432c-4.632,0-7.096-2.825-7.096-7.097
			c0-4.5,3.055-7.062,7.03-7.062c1.38,0,3.351,0.295,4.599,0.656v2.793h-0.427c-0.788-1.38-2.136-2.267-4.073-2.267
			c-2.76,0-4.468,2.201-4.468,5.519c0,3.68,2.004,5.881,4.861,5.881c1.774,0,3.318-0.624,4.14-1.479L633.651,97.181z"/>
		<path fill="#1E1E1E" d="M648.072,97.51c-0.723,0.854-2.201,2.103-4.797,2.103c-4.632,0-7.096-2.825-7.096-7.097
			c0-4.336,2.989-7.062,6.57-7.062c3.482,0,5.749,2.464,5.585,5.289c0,0.229-0.033,0.525-0.099,0.689h-9.33
			c-0.427,3.778,1.676,6.604,4.796,6.604c1.774,0,2.99-0.296,3.812-1.149L648.072,97.51z M645.674,90.314
			c0.229-1.643-0.821-3.679-2.891-3.679c-2.169,0-3.45,2.004-3.746,3.679H645.674z"/>
		<path fill="#1E1E1E" d="M651.618,96.064h0.427c0.92,1.643,1.972,2.365,3.68,2.365c1.873,0,2.891-0.69,2.891-1.905
			c0-0.789-0.394-1.314-1.084-1.643l-4.073-2.005c-1.314-0.656-2.136-1.675-2.136-3.285c0-2.693,2.432-4.139,5.026-4.139
			c1.348,0,3.022,0.328,4.14,0.656v2.793h-0.427c-0.723-1.281-1.938-2.267-3.646-2.267c-1.61,0-2.629,0.854-2.629,2.069
			c0,1.052,0.395,1.577,1.479,2.103l4.14,2.004c0.723,0.361,1.609,1.248,1.609,2.76c0,2.596-2.036,4.041-5.256,4.041
			c-1.348,0-3.022-0.329-4.14-0.657V96.064z"/>
	</g>
	<g>
		<g>
			<g>
				<g>
					<path fill="#1E1E1E" d="M222.922,38.19c-0.605-1.325-1.519-2.29-3.077-2.632V34.79c0.965,0,4.187,0.113,4.93,0.113
						c0.687,0,3.598-0.113,4.594-0.113v0.744c-0.885,0.172-1.899,0.667-1.899,1.573c0,0.643,0.398,1.527,1.139,3.191l7.072,16.067
						l6.68-16.094c0.527-1.304,0.909-2.3,0.909-3.068c0-0.857-0.787-1.436-1.895-1.668V34.79c0.885,0,3.031,0.113,3.715,0.113
						c0.625,0,3.179-0.113,4.148-0.113v0.768c-1.667,0.444-2.688,1.368-3.606,3.54l-9.839,23.188h-2.066L222.922,38.19z"/>
					<path fill="#1E1E1E" d="M127.465,61.398c1.28-0.288,2.185-0.865,2.185-2.324v-21.26c0-1.394-0.846-1.983-2.185-2.331v-0.756
						c0.669,0,3.578,0.117,4.278,0.117c0.814,0,3.897-0.117,4.572-0.117v0.756c-1.284,0.294-2.243,0.873-2.243,2.331v8.881h15.839
						v-8.881c0-1.458-0.836-2.037-2.171-2.331v-0.756c0.664,0,3.689,0.117,4.505,0.117c0.696,0,3.667-0.117,4.338-0.117v0.756
						c-1.283,0.294-2.242,0.873-2.242,2.331v21.26c0,1.392,0.896,1.978,2.242,2.324v0.705c-0.671,0-3.642-0.059-4.338-0.059
						c-0.815,0-3.841,0.059-4.505,0.059v-0.705c1.274-0.288,2.171-0.865,2.171-2.324V49.023h-15.839v10.051
						c0,1.458,0.902,1.978,2.243,2.324v0.705c-0.675,0-3.758-0.059-4.572-0.059c-0.7,0-3.609,0.059-4.278,0.059V61.398z
						 M160.932,61.398c1.724-0.405,2.677-1.527,3.309-3.027l8.758-21.076c0.37-0.875,0.81-2.664,0.81-2.664h2.446
						c0,0,0.439,1.794,0.81,2.667l9.257,21.137c0.659,1.454,1.373,2.499,3.218,2.963l-0.011,0.705c-1.002,0-4.119-0.059-4.826-0.059
						c-0.708,0-3.679,0.059-4.682,0.059l0.004-0.705c1.347-0.332,1.77-1.015,1.77-1.681c0-0.565-0.231-1.197-0.51-1.855
						l-1.962-4.479l-10.262-0.006l-1.795,4.506c-0.204,0.515-0.445,1.249-0.445,1.742c0,0.759,0.398,1.369,1.934,1.774l-0.007,0.705
						c-0.912,0-3.293-0.059-3.863-0.059l-3.956,0.059L160.932,61.398z M178.366,51.168l-4.359-10.151l-4.055,10.151H178.366z
						 M160.932,61.398c1.724-0.405,2.677-1.527,3.309-3.027l8.758-21.076c0.37-0.875,0.81-2.664,0.81-2.664h2.446
						c0,0,0.439,1.794,0.81,2.667l9.257,21.137c0.659,1.454,1.373,2.499,3.218,2.963l-0.011,0.705c-1.002,0-4.119-0.059-4.826-0.059
						c-0.708,0-3.679,0.059-4.682,0.059l0.004-0.705c1.347-0.332,1.77-1.015,1.77-1.681c0-0.565-0.231-1.197-0.51-1.855
						l-1.962-4.479l-10.262-0.006l-1.795,4.506c-0.204,0.515-0.445,1.249-0.445,1.742c0,0.759,0.398,1.369,1.934,1.774l-0.007,0.705
						c-0.912,0-3.293-0.059-3.863-0.059l-3.956,0.059L160.932,61.398z M178.366,51.168l-4.359-10.151l-4.055,10.151H178.366z
						 M247.356,61.398c1.726-0.405,2.681-1.527,3.304-3.027l8.769-21.076c0.364-0.875,0.804-2.664,0.804-2.664h2.446
						c0,0,0.44,1.794,0.81,2.667l9.251,21.137c0.661,1.454,1.376,2.499,3.225,2.963l-0.009,0.705c-1.009,0-4.118-0.059-4.832-0.059
						c-0.705,0-3.68,0.059-4.682,0.059l0.008-0.705c1.353-0.332,1.775-1.015,1.775-1.681c0-0.565-0.237-1.197-0.514-1.855
						l-1.958-4.479l-10.27-0.006l-1.793,4.506c-0.207,0.515-0.447,1.249-0.447,1.742c0,0.759,0.399,1.369,1.926,1.774v0.705
						c-0.904,0-3.224-0.059-3.782-0.059l-4.035,0.059L247.356,61.398z M264.789,51.168l-4.352-10.151l-4.061,10.151H264.789z
						 M310.65,61.398c1.646-0.288,2.539-0.943,2.539-2.444v-21.14c0-1.458-0.887-2.037-2.471-2.331v-0.756
						c0.91,0,3.937,0.117,4.744,0.117c1.338,0,5.126-0.289,8.019-0.289c9.743,0,15.66,5.432,15.66,13.711
						c0,8.046-6.15,14.003-16.199,14.003c-2.897,0-6.412-0.224-7.75-0.224c-0.818,0-3.632,0.113-4.542,0.113V61.398z
						 M317.618,60.006c0.996,0.172,2.83,0.284,4.276,0.284c8.176,0,12.441-4.917,12.441-11.792c0-7.129-4.495-12.142-12.144-12.142
						c-1.565,0-3.527,0.117-4.574,0.294V60.006z"/>
				</g>
				<path fill="#1E1E1E" d="M200.5,58.874c0,1.409,0.89,2.178,2.543,2.524v0.759c-0.918,0-3.9-0.113-4.76-0.113
					c-0.728,0-3.65,0.113-4.562,0.113v-0.759c1.522-0.288,2.425-1.053,2.425-2.524v-20.99c0-1.288-0.698-2.106-2.425-2.4v-0.756
					c0.918,0,3.808,0.117,4.623,0.117c1.334,0,5.137-0.22,6.633-0.22c6.556,0,10.201,2.703,10.201,7.342
					c0,3.653-2.725,6.113-6.896,7.132c0,0,0.945,0.553,1.894,1.663c1.163,1.357,4.353,5.927,5.646,7.492
					c1.288,1.561,2.95,3.351,4.708,3.433v0.573c-0.841,0.189-2.198,0.343-3.239,0.343c-2.235,0-4.01-0.781-5.733-2.872
					c-1.49-1.809-4.091-5.67-5.581-7.574c-0.961-1.207-2.104-2.167-4.21-2.505c-0.413-0.069-0.805-0.129-1.266-0.183V58.874z
					 M200.5,47.726c0.868,0.118,2.148,0.176,3.421,0.176c5.127,0,6.736-2.955,6.736-5.556c0-3.706-2.462-5.99-6.96-5.99
					c-0.917,0-2.265,0.124-3.197,0.294V47.726z"/>
				<path fill="#1E1E1E" d="M286.495,58.874c0,1.409,0.887,2.178,2.535,2.524v0.759c-0.913,0-3.895-0.113-4.746-0.113
					c-0.727,0-3.654,0.113-4.568,0.113v-0.759c1.525-0.288,2.424-1.053,2.424-2.524v-20.99c0-1.288-0.703-2.106-2.424-2.4v-0.756
					c0.917,0,3.804,0.117,4.619,0.117c1.339,0,5.142-0.22,6.639-0.22c6.551,0,10.2,2.703,10.2,7.342c0,3.653-2.72,6.113-6.894,7.132
					c0,0,0.938,0.553,1.891,1.663c1.162,1.357,4.351,5.927,5.646,7.492c1.287,1.561,2.942,3.351,4.706,3.433v0.573
					c-0.839,0.189-2.195,0.343-3.237,0.343c-2.237,0-4.014-0.781-5.739-2.872c-1.483-1.809-4.085-5.67-5.576-7.574
					c-0.958-1.207-2.101-2.167-4.21-2.505c-0.416-0.069-0.801-0.129-1.265-0.183V58.874z M286.495,47.726
					c0.866,0.118,2.155,0.176,3.424,0.176c5.119,0,6.732-2.955,6.732-5.556c0-3.706-2.462-5.99-6.954-5.99
					c-0.919,0-2.27,0.124-3.202,0.294V47.726z"/>
			</g>
		</g>
	</g>
	<path fill="#1E1E1E" d="M364.415,38.056c0-1.177-0.76-2.04-2.329-2.386v-0.761c0.871,0,3.747,0.118,4.57,0.118
		c0.696,0,3.493-0.118,4.364-0.118v0.761c-1.455,0.29-2.217,1.148-2.217,2.386v14.912c0,4.716,2.59,7.391,8.014,7.391
		c4.674,0,8.309-2.099,8.309-7.043V37.998c0-1.107-0.698-1.981-2.445-2.328v-0.761c0.638,0,3.021,0.118,3.841,0.118
		c0.698,0,3.2-0.118,3.841-0.118v0.761c-1.695,0.405-2.444,1.164-2.444,2.328v14.497c0,6.505-3.784,10.242-11.955,10.242
		c-7.602,0-11.548-3.456-11.548-9.568V38.056z"/>
	<path fill="#1E1E1E" d="M395.542,61.573c1.766-0.332,2.468-1.228,2.468-2.327V38.637c0-1.751-0.934-2.541-2.517-2.967v-0.758
		c0.892,0.062,2.398,0.105,3.168,0.105c0.702,0,1.792-0.012,2.52-0.105l17.875,21.014V37.995c0-1.105-0.702-1.979-2.444-2.325
		v-0.758c0.639,0,2.936,0.114,3.759,0.114c0.707,0,3.172-0.114,3.826-0.114v0.758c-1.708,0.404-2.528,1.164-2.528,2.325v24.74
		h-1.075c-0.683-0.153-1.964-0.876-3.909-3.021l-16.005-18.628v18.161c0,1.105,0.642,1.982,2.386,2.327v0.76
		c-0.642,0-2.937-0.118-3.759-0.118c-0.705,0-3.116,0.118-3.764,0.118V61.573z"/>
	<path fill="#1E1E1E" d="M534.35,56.013h0.744c0.411,1.538,1.292,2.939,2.523,3.756c1.287,0.906,3.299,1.342,4.933,1.342
		c3.596,0,5.871-1.786,5.871-4.602c0-2.923-2.915-4.441-6.409-6.188c-2.604-1.301-7.725-3.451-7.725-8.392
		c0-4.605,3.515-7.469,9.13-7.469c3.709,0,5.443,0.902,7.947,0.788l-0.053,5.588h-0.759c-1-3.293-3.995-4.44-7.259-4.44
		c-3.668,0-5.03,2.095-5.03,4.222c0,3.048,2.984,4.587,6.361,6.091c3.796,1.695,7.921,3.834,7.921,8.596
		c0,4.504-3.526,7.775-9.973,7.775c-3.84,0-6.139-1.097-8.152-1.341L534.35,56.013z"/>
	<path fill="#1E1E1E" d="M611.537,50.991l-7.278-11.676c-1.243-2.053-2.191-3.132-3.57-3.645v-0.759
		c0.986,0,3.684,0.115,4.451,0.115c0.692,0,3.601-0.115,4.654-0.115v0.759c-0.93,0.167-1.376,0.631-1.376,1.328
		c0,0.626,0.429,1.423,0.843,2.111c0.425,0.684,5.37,8.902,5.37,8.902l5.172-8.899c0.522-0.888,0.89-1.773,0.89-2.359
		c0-0.532-0.374-0.969-1.26-1.083v-0.759c0.876,0,2.725,0.115,3.31,0.115c0.58,0,2.694-0.115,3.564-0.115v0.709
		c-1.989,0.816-3.235,2.551-4.438,4.579l-6.61,11.058 M615.708,49.864v9.326c0,0.93,0.697,2.091,2.298,2.381v0.761
		c-0.891,0-3.794-0.116-4.622-0.116c-0.707,0-3.484,0.116-4.49,0.116v-0.761c1.596-0.29,2.359-1.452,2.359-2.381v-8.921"/>
	<path fill="#1E1E1E" d="M476.67,34.911h17.073c0.519,0,1.453-0.059,1.977-0.29h0.758l-0.113,5.551h-0.758
		c-0.646-1.746-1.325-3.143-4.629-3.143h-7.412v9.66h5.718c0.831,0,1.834-0.074,2.278-0.17c1.283-0.283,1.848-0.996,2.104-2.096
		h0.762c-0.057,0.843-0.057,2.746-0.057,3.311c0,0.566,0.057,2.574,0.057,3.485h-0.762c-0.362-1.091-0.865-1.926-2.104-2.231
		c-0.444-0.108-1.469-0.204-2.278-0.204h-5.718V60.12h8.068c3.516,0,4.539-1.475,5.414-3.545l0.753,0.175l-0.753,5.698
		c-2.621-0.231-4.193-0.231-7.161-0.231h-8.516c-0.819,0-3.835,0.116-4.705,0.116v-0.761c1.53-0.295,2.428-1.049,2.428-2.523V38.087
		c0-1.295-0.697-2.113-2.424-2.405V34.911z"/>
	<path fill="#1E1E1E" d="M432.333,38.229c0-1.407-0.838-2.18-2.484-2.527v-0.757c0.913,0,3.879,0.116,4.738,0.116
		c0.729,0,3.773-0.116,4.695-0.116v0.757c-1.635,0.351-2.492,1.052-2.492,2.527v20.818c0,1.408,0.842,2.177,2.492,2.525v0.761
		c-0.922,0-3.842-0.116-4.695-0.116c-0.739,0-3.825,0.116-4.74,0.116v-0.761c1.681-0.316,2.486-1.05,2.486-2.525V38.229z"/>
	<path fill="#1E1E1E" d="M561.047,38.229c0-1.407-0.839-2.18-2.485-2.527v-0.757c0.917,0,3.879,0.116,4.74,0.116
		c0.73,0,3.775-0.116,4.695-0.116v0.757c-1.631,0.351-2.489,1.052-2.489,2.527v20.818c0,1.408,0.845,2.177,2.489,2.525v0.761
		c-0.916,0-3.838-0.116-4.695-0.116c-0.729,0-3.821,0.116-4.74,0.116v-0.761c1.682-0.316,2.485-1.05,2.485-2.525V38.229z"/>
	<path fill="#1E1E1E" d="M585.528,35.026c-9.355,0-10.86-0.174-12.772-0.29l0.02,5.648h0.758c0.698-2.5,2.098-3.086,3.899-3.086
		h5.872v21.75c0,1.474-0.807,2.205-2.491,2.525v0.759c0.929,0,4.043-0.116,4.766-0.116c0.862,0,3.784,0.116,4.7,0.116v-0.759
		c-1.652-0.351-2.491-1.119-2.491-2.525v-21.75h5.822c1.863,0,3.201,0.642,3.9,3.086h0.761l0.016-5.648
		C596.377,34.853,594.892,35.026,585.528,35.026"/>
	<path fill="#1E1E1E" d="M510.866,59.048c0,1.406,0.899,2.175,2.546,2.525v0.759c-0.914,0-3.905-0.117-4.756-0.117
		c-0.735,0-3.664,0.117-4.58,0.117v-0.759c1.53-0.295,2.437-1.052,2.437-2.525V38.019c0-1.294-0.706-2.111-2.433-2.399v-0.76
		c0.926,0,3.812,0.114,4.627,0.114c1.34,0,5.149-0.224,6.645-0.224c6.56,0,10.214,2.717,10.214,7.359
		c0,3.658-2.719,6.123-6.903,7.139c0,0,0.947,0.552,1.897,1.667c1.169,1.36,4.29,5.842,5.586,7.411
		c1.285,1.568,2.946,3.321,4.721,3.4v0.616c-0.847,0.182-2.21,0.345-3.251,0.345c-2.236,0-4.013-0.788-5.735-2.879
		c-1.5-1.816-4.033-5.587-5.525-7.495c-0.953-1.213-2.105-2.164-4.218-2.512c-0.416-0.069-0.806-0.125-1.271-0.179V59.048z
		 M510.866,47.877c0.873,0.113,2.163,0.171,3.426,0.171c5.138,0,6.752-2.954,6.752-5.565c0-3.706-2.472-5.988-6.963-5.988
		c-0.926,0-2.277,0.116-3.215,0.288V47.877z"/>
	<path fill="#1E1E1E" d="M446.612,38.319c-0.605-1.323-1.523-2.291-3.082-2.637v-0.77c0.971,0,4.35,0.118,5.09,0.118
		c0.682,0,3.624-0.118,4.623-0.118v0.75c-0.891,0.171-1.904,0.662-1.904,1.571c0,0.646,0.398,1.532,1.145,3.201l7.069,16.072
		l6.694-16.103c0.516-1.301,0.906-2.308,0.906-3.075c0-0.854-0.787-1.435-1.898-1.666v-0.75c0.887,0,3.061,0.118,3.74,0.118
		c0.621,0,3.178-0.118,4.154-0.118v0.77c-1.668,0.449-2.682,1.369-3.622,3.541l-9.835,23.21h-2.23L446.612,38.319z"/>
	<path fill-rule="evenodd" clip-rule="evenodd" fill="#FFFFFF" stroke="#1E1E1E" stroke-width="0.9655" d="M27.825,56.625
		c0.038,0.329,0.076,0.625,0.116,0.87c0.384,4.935,1.284,8.075,2.512,12.671c0.306,1.119,0.65,2.105,1.02,3.045
		c-0.192-0.54-0.379-1.085-0.554-1.691l71.624,0.056c-1.062,3.138-2.405,6.24-3.922,9.69c2.646-6.011,4.76-10.563,5.784-17.089
		c0.157-1.184,0.856-5.635,1.209-8.36c-0.034,0.26-0.069,0.534-0.109,0.823L27.825,56.625z"/>
	<path fill="#A51C30" stroke="#1E1E1E" stroke-width="0.9655" d="M27.305,21.769L27.3,48.885c0.016,0.298,0.035,0.665,0.057,1.056
		c0.012,0.234,0.024,0.473,0.039,0.732c0.007,0.118,0.014,0.243,0.021,0.365c0.014,0.249,0.026,0.498,0.042,0.757
		c0.009,0.15,0.018,0.301,0.027,0.453c0.014,0.232,0.028,0.463,0.042,0.699c0.009,0.164,0.02,0.329,0.031,0.493
		c0.017,0.242,0.033,0.479,0.05,0.717c0.009,0.148,0.02,0.298,0.031,0.444c0.021,0.261,0.042,0.51,0.064,0.757
		c0.008,0.11,0.018,0.227,0.027,0.334c0.03,0.331,0.061,0.646,0.093,0.932h0.002l77.68,0.015c0.04-0.289,0.075-0.562,0.109-0.823
		c0.01-0.07,0.016-0.132,0.024-0.198c0.025-0.184,0.047-0.357,0.064-0.522c0.01-0.074,0.018-0.144,0.024-0.214
		c0.018-0.152,0.034-0.29,0.045-0.418c0.004-0.051,0.012-0.106,0.016-0.152c0.014-0.164,0.027-0.309,0.028-0.416L106.202,44
		l0.025-22.231H27.305z"/>
	<path fill-rule="evenodd" clip-rule="evenodd" fill="#A51C30" stroke="#1E1E1E" stroke-width="0.9655" d="M30.919,71.52
		c0.174,0.606,0.362,1.151,0.554,1.691c0.723,2.038,1.57,3.757,2.632,6.128c0.591,1.256,6.803,12.191,9.899,16.063
		c3.864,5.231,9.097,10.212,14.395,14.266c2.306,1.835,8.236,6.186,8.995,6.167c2.187-0.784,20.084-16.072,25.186-23.9
		c2.234-3.524,4.295-6.989,6.041-10.669c1.517-3.45,2.86-6.552,3.922-9.69L30.919,71.52z"/>
	<path fill="#FFFFFF" d="M101.159,43.894c-0.636,0.054-1.295,0.107-1.83-0.219l-0.074-0.045l-0.072-0.044l-0.015-0.086l-0.014-0.085
		c-0.166-1.078-0.177-2.235-0.188-3.358c-0.008-0.775-0.017-1.508-0.071-2.193l-0.003-0.023l-0.003-0.022l0.003-0.021
		c0,0,0.005-0.021,0.005-0.023c0.023-0.141,0.014-0.322,0.005-0.516c-0.022-0.452-0.049-1.014,0.337-1.465l0.044-0.05l0.044-0.052
		l0.065-0.011l0.066-0.011c0.356-0.06,0.738-0.072,1.113-0.083c0.771-0.024,1.556-0.062,2.06-0.514
		c0.062-0.59-0.011-1.306-0.592-1.667c-0.562-0.255-1.245-0.194-1.918-0.132c-0.192,0.018-0.388,0.036-0.581,0.045l-0.049,0.004
		l-0.05,0.002l-0.045-0.023l-0.04-0.021l-0.26-0.129l-0.1-0.05l-0.101-0.05l-0.002-0.113l-0.003-0.112
		c-0.007-0.441-0.039-0.888-0.076-1.365c-0.055-0.749-0.106-1.522-0.053-2.287c-0.159-0.429-0.412-0.442-1.117-0.345
		c-0.434,0.061-0.881,0.123-1.326-0.026l-0.07-0.023l-0.074-0.024l-0.035-0.067l-0.034-0.067c-0.127-0.249-0.412-0.645-0.875-0.683
		c-0.974,0.663-2.064,1.052-3.248,1.138c-0.658,0.079-1.358,0.021-2.034-0.039c-1.348-0.116-2.622-0.226-3.528,0.701L86.38,29.78
		l-0.039,0.041l-0.06,0.011l-0.054,0.012c-0.457,0.09-0.844-0.132-1.152-0.311c-0.154-0.088-0.3-0.173-0.457-0.218
		c-0.955-0.34-2.076-0.3-3.166-0.262c-1.597,0.057-3.249,0.104-4.531-0.989c-0.237-0.002-0.391,0.123-0.666,0.47
		c-0.312,0.391-0.739,0.927-1.62,0.793c-0.431-0.099-0.892-0.062-1.255,0.061c-0.166,0.851-0.191,1.687-0.198,2.574
		c-0.002,0.368-0.005,0.748-0.02,1.133l-0.003,0.039l-0.002,0.041l-0.018,0.036l-0.018,0.035L72.995,33.5
		c-0.021,0.037-0.045,0.084-0.048,0.095l-0.015-0.174l-0.154-0.085l-0.002,0.37l-0.116-0.001l-0.307-0.003
		c-0.968-0.013-1.966-0.022-2.606,0.638c-0.143,0.215-0.169,0.558-0.07,0.945c0.241,0.803,0.813,0.815,1.802,0.768
		c0.541-0.026,1.101-0.053,1.585,0.155l0.103,0.042l0.104,0.044l0.011,0.109l0.008,0.11l0.26,2.828l0.002,0.033l0.002,0.032
		l-0.009,0.031l-0.009,0.032c-0.062,0.223-0.179,0.797-0.006,1.332l0.021,0.068l0.023,0.067l-0.03,0.065l-0.026,0.063
		c-0.165,0.365-0.13,0.781-0.095,1.222c0.045,0.579,0.099,1.235-0.334,1.807l-0.044,0.059l-0.047,0.06l-0.071,0.013l-0.071,0.012
		c-0.271,0.045-0.553,0.067-0.85,0.09c-0.728,0.053-1.475,0.11-1.888,0.557c-0.179,0.206-0.175,0.51-0.169,0.78
		c0,0.022,0,0.046,0,0.071c0.22,0.88,0.882,0.914,1.944,0.885c0.502-0.013,0.977-0.025,1.398,0.113l0.124,0.041l0.123,0.04
		l0.003,0.128l0.007,0.129l0.125,3.207c0.006,0.057,0.023,0.08,0.039,0.096c0.062,0.052,0.197,0.081,0.368,0.068
		c1.248,0.009,2.53-0.014,3.782-0.038c2.102-0.041,4.272-0.08,6.386,0.038l0.066,0.004l0.066,0.003l0.048,0.044l0.048,0.044
		c0.491,0.445,1.062,0.691,1.618,0.926c0.669-0.004,1.102-0.241,1.562-0.871l0.055-0.079l0.059-0.076l0.095,0.001l0.096,0.002
		c0.59,0.01,1.143-0.041,1.682-0.089c0.764-0.07,1.49-0.132,2.304-0.038v-0.001c1.388,0.027,2.708-0.052,3.992-0.128
		c0.912-0.053,1.856-0.107,2.823-0.125c0.265-0.149,0.292-0.443,0.265-1.097c-0.006-0.2-0.014-0.404-0.004-0.604
		c0.001-0.095-0.007-0.22-0.017-0.351c-0.038-0.495-0.086-1.172,0.365-1.684l0.036-0.041l0.038-0.042l0.054-0.016l0.053-0.013
		c0.525-0.144,1.016-0.158,1.491-0.171c0.503-0.016,0.978-0.028,1.46-0.213c0.273-0.08,0.324-0.276,0.343-0.864
		c0.001-0.124,0.014-0.26,0.027-0.395C102.674,43.847,102.24,43.803,101.159,43.894z"/>
	<path fill="#FFFFFF" d="M49.198,51.089l0.05-0.004c3.523-0.248,7.229-0.187,10.508-0.13c0.009-0.003,0.021-0.007,0.021-0.007
		c0.345-0.111,0.498-0.193,0.56-0.346c-0.023-0.46-0.123-2.471-0.123-2.471l-0.003-0.053l-0.003-0.055l0.027-0.046l0.025-0.047
		c0.034-0.061,0.041-0.209,0.045-0.329c0.015-0.299,0.04-0.922,0.755-1.013c0.293-0.029,0.594-0.019,0.909-0.007
		c0.553,0.02,1.12,0.03,1.599-0.196c0.271-0.284,0.415-0.719,0.37-1.145c-0.31-0.864-1.141-0.896-2.106-0.922
		c-0.355-0.01-0.724-0.021-1.06-0.083l-0.131-0.023l-0.131-0.025l-0.019-0.131l-0.02-0.132c-0.329-2.284-0.307-5.163-0.259-7.128
		l0.001-0.074l0.001-0.074l0.052-0.053l0.053-0.053l0.257-0.257l0.028-0.026l0.028-0.028l0.035-0.014c0,0,0.036-0.014,0.035-0.014
		c0.399-0.156,0.853-0.172,1.292-0.189c0.729-0.026,1.36-0.058,1.709-0.646c0.007-0.036,0.014-0.072,0.014-0.074
		c0.058-0.291,0.1-0.501-0.003-0.776c-0.324-0.704-1.159-0.684-2.049-0.665c-0.353,0.008-0.686,0.015-0.999-0.022l-0.031-0.004
		l-0.032-0.004l-0.03-0.014l-0.028-0.014l-0.258-0.128l-0.083-0.041l-0.082-0.043l-0.018-0.091c0,0-0.015-0.091-0.015-0.093
		c-0.168-0.944-0.154-1.879-0.141-2.784l0.005-0.497h0.002c-0.024-0.137-0.041-0.279-0.046-0.41
		c-0.021-0.483-0.067-0.491-0.151-0.504c-0.317-0.046-0.694,0.007-1.063,0.06c-0.785,0.112-1.743,0.237-2.381-0.638
		c-0.477,0.119-0.936,0.332-1.347,0.54l-0.019,0.011l-0.021,0.011l-0.021,0.005l-0.021,0.005c-0.94,0.229-1.969,0.252-2.965,0.277
		c-1.585,0.037-3.225,0.076-4.493,0.953l-0.094,0.065l-0.095,0.065l-0.1-0.055l-0.101-0.055c-0.162-0.089-0.314-0.201-0.466-0.314
		c-0.34-0.247-0.632-0.462-0.977-0.416l-0.024,0.003l-0.024,0.003l-0.024-0.003L45.5,29.718c-0.737-0.095-1.529-0.09-2.293-0.084
		c-1.593,0.01-3.226-0.01-4.572-0.878c-0.078,0.028-0.152,0.03-0.209,0.021c-0.135-0.022-0.219-0.095-0.277-0.174
		c-0.113,0.045-0.231,0.153-0.411,0.401c-0.09,0.127-0.177,0.247-0.28,0.351l-0.019,0.02l-0.019,0.019l-0.023,0.012l-0.023,0.014
		c-0.519,0.287-1.089,0.254-1.641,0.222c-0.619-0.036-1.016-0.032-1.266,0.259c-0.063,0.501-0.065,1.04-0.062,1.568
		c0.003,0.784,0.007,1.594-0.196,2.351l-0.025,0.1l-0.028,0.102l-0.1,0.029l-0.102,0.029c-0.4,0.115-0.82,0.136-1.23,0.157
		c-0.343,0.017-0.667,0.034-0.961,0.104c-0.038,0.013-0.117,0.04-0.117,0.04c-0.697,0.241-1.009,0.409-1.021,0.768v0.015
		c0,0,0,0.014-0.004,0.029l-0.001,0.015c-0.061,0.319,0.006,0.764,0.377,1.052l0.016,0.012l0.018,0.014l0.012,0.015l0.013,0.016
		c0.287,0.351,0.769,0.325,1.381,0.293c0.59-0.03,1.201-0.06,1.739,0.269l0.072,0.044l0.072,0.043l0.013,0.083l0.015,0.082
		c0.15,0.849,0.141,1.756,0.132,2.639c-0.004,0.376-0.008,0.764,0.001,1.164c-0.01,0.305,0.009,0.645,0.03,1.004
		c0.046,0.818,0.099,1.746-0.177,2.571c-0.019,0.058-0.042,0.124-0.044,0.132l-0.028-0.164l-0.149-0.076l-0.013,0.37l-0.145-0.012
		c0,0-0.184-0.013-0.184-0.015c-0.982-0.076-2.097-0.163-2.711,0.52c-0.138,0.173-0.112,0.625,0.06,1.054
		c0.251,0.687,0.899,0.699,1.936,0.66c0.316-0.013,0.646-0.025,0.957-0.001l0.035,0.003l0.035,0.002l0.031,0.017l0.033,0.015
		c0.674,0.329,0.577,1.127,0.504,1.71c-0.021,0.156-0.037,0.3-0.038,0.414c0.084,0.327,0.089,0.66,0.083,0.985
		c-0.014,0.63,0.021,0.918,0.316,1.101c2.287,0.2,4.664,0.095,6.964-0.01c1.254-0.057,2.553-0.116,3.829-0.125l0.06-0.001h0.061
		l0.049,0.036l0.05,0.035c0.465,0.333,0.898,0.617,1.508,0.706l0.016,0.002c0,0,0.015,0.002,0.028,0.007l0.015,0.004
		c0.362,0.115,0.733-0.169,1.128-0.469c0.116-0.088,0.233-0.178,0.354-0.258l0.041-0.027l0.042-0.026L49.198,51.089z"/>
	<path fill="#FFFFFF" d="M85.191,94.559l-0.01-0.019c0,0-0.008-0.014-0.014-0.03l-0.007-0.018c-0.223-0.678-0.772-0.682-1.731-0.629
		c-0.397,0.021-0.807,0.046-1.192-0.021v-0.007c-0.304,0.011-0.521-0.087-0.642-0.199c-0.35-0.33-0.316-0.848-0.308-0.931V86.28
		v-0.029V86.22l0.009-0.028l0.01-0.03l0.13-0.385l0.028-0.085l0.027-0.084l0.082-0.031l0.084-0.029
		c0.456-0.169,0.949-0.196,1.425-0.222c0.782-0.044,1.4-0.081,1.723-0.642l0.006-0.009c0,0,0.008-0.012,0.014-0.021l0.005-0.009
		c0.204-0.274,0.204-0.571,0-0.842l-0.014-0.022l-0.019-0.021l-0.008-0.022l-0.009-0.027c-0.184-0.49-0.512-0.527-1.177-0.563
		c-0.263-0.013-0.536-0.038-0.814-0.1c-0.49,0.104-1.051,0.06-1.539-0.156l-0.078-0.036l-0.077-0.033l-0.022-0.083l-0.027-0.081
		c-0.227-0.742-0.144-1.425-0.062-2.084c0.074-0.605,0.141-1.178-0.055-1.733c-0.183-0.354-0.479-0.376-1.154-0.333
		c-0.433,0.028-0.885,0.058-1.329-0.107c-0.017-0.004-0.039-0.014-0.041-0.014l0.199-0.057l0.021-0.208l-0.307,0.203l-0.032-0.038
		l-0.053-0.064c-0.393-0.488-0.626-0.688-0.957-0.588c-0.712,0.34-1.41,0.606-2.081,0.777l-0.015,0.004c0,0-0.014,0.004-0.025,0.004
		h-0.012c-0.87,0.091-1.743,0.089-2.588,0.087c-1.557-0.004-3.029-0.009-4.38,0.532l-0.014,0.007c0,0-0.014,0.004-0.027,0.007
		l-0.014,0.004c-0.065,0.015-0.171,0.12-0.265,0.214c-0.197,0.198-0.466,0.47-0.881,0.436l-0.062-0.004l-0.065-0.007l-0.047-0.044
		l-0.048-0.045c-1.015-0.957-2.379-0.968-3.833-0.982c-0.57-0.004-1.157-0.011-1.705-0.073c-0.311-0.009-0.636,0-0.983,0.007
		c-1.171,0.024-2.498,0.055-3.562-0.571c-0.237-0.139-0.382-0.053-0.793,0.328c-0.11,0.1-0.225,0.208-0.346,0.294l-0.046,0.033
		l-0.042,0.032l-0.056,0.002l-0.056,0.004l-2.34,0.123c-0.307,0.18-0.316,0.45-0.243,1.076c0.046,0.365,0.072,0.741-0.021,1.116
		c0.008,0.131,0.021,0.262,0.035,0.381c0.059,0.504,0.123,1.079-0.38,1.672l-0.024,0.027l-0.024,0.028l-0.033,0.018l-0.034,0.019
		c-0.482,0.243-1.016,0.24-1.533,0.239c-0.801-0.002-1.266,0.024-1.518,0.628c-0.232,0.447-0.078,0.962,0.193,1.24l0.01,0.011
		c0,0,0.01,0.009,0.018,0.021l0.009,0.011c0.421,0.58,1.196,0.5,2.017,0.417c0.215-0.025,0.417-0.045,0.62-0.054l0.05-0.002
		l0.047-0.003l0.044,0.021l0.043,0.021l0.258,0.127l0.081,0.043l0.081,0.041l0.02,0.088l0.016,0.089
		c0.101,0.51,0.112,0.958,0.124,1.392c0.011,0.443,0.023,0.901,0.133,1.433l0.004,0.024l0.006,0.022l-0.002,0.027l-0.001,0.021
		l-0.257,4.24l-0.004,0.072l-0.004,0.069l-0.052,0.051L52.62,93.48l-0.256,0.259L52.33,93.77l-0.031,0.034l-0.046,0.013L52.21,93.83
		c-0.398,0.12-0.807,0.139-1.203,0.156c-0.638,0.023-1.143,0.046-1.425,0.467l-0.008,0.013c0,0-0.01,0.013-0.02,0.024l-0.011,0.011
		c-0.352,0.371-0.347,0.908-0.204,1.235c0.4,0.715,1.099,0.72,1.982,0.725c0.461,0.004,0.937,0.006,1.388,0.126l0.109,0.029
		l0.109,0.029l0.024,0.109l0.024,0.11c0.134,0.608,0.085,1.245,0.037,1.855l-0.013,0.212c-0.009,0.094-0.021,0.146-0.031,0.202
		l0.015,0.003c-0.003,0.16,0.027,0.305,0.057,0.461c0.049,0.249,0.096,0.55-0.038,0.857c0.13,0.718,0.354,0.775,0.626,0.747
		c2.439-0.092,4.692-0.137,6.684-0.131c1.312-0.044,2.656-0.025,3.955-0.013l1.457,0.013c0,0,0.046,0,0.044,0h0.046l0.042,0.023
		l0.04,0.02c0.24,0.129,0.429,0.299,0.612,0.462c0.32,0.287,0.519,0.445,0.829,0.399l0.052-0.009l0.052-0.007l0.048,0.021
		l0.046,0.021c0.672,0.281,1.235-0.278,1.781-0.821l0.049-0.047l0.05-0.05l0.068-0.006l0.072-0.003
		c3.707-0.229,7.062-0.271,10.553-0.131c0.079-0.005,0.157-0.01,0.232-0.011c0.414-0.019,0.8-0.05,1.066-0.29
		c-0.081-0.822-0.06-1.652-0.025-2.457c0.018-0.43,0.032-0.838,0.032-1.24v-0.031v-0.029l0.012-0.029l0.01-0.028l0.128-0.386
		l0.034-0.101l0.032-0.103l0.103-0.02l0.108-0.021c0.43-0.09,0.869-0.105,1.29-0.121c0.841-0.026,1.566-0.058,2.067-0.628
		C85.314,95.222,85.354,94.846,85.191,94.559z"/>
	<path fill="#1E1E1E" d="M96.601,28.368c-0.328-0.643-0.857-1.007-1.452-1h-0.058l-0.046,0.034
		c-0.923,0.662-1.971,1.039-3.119,1.122c-0.61,0.075-1.252,0.019-1.929-0.04c-1.419-0.122-2.886-0.248-3.973,0.867l0.095-0.051
		c-0.254,0.049-0.503-0.095-0.769-0.248c-0.177-0.103-0.36-0.208-0.56-0.264c-1.039-0.373-2.22-0.33-3.357-0.291
		c-1.614,0.059-3.14,0.112-4.274-0.95l-0.045-0.042l-0.06-0.008c-0.621-0.078-0.947,0.331-1.233,0.69
		c-0.29,0.363-0.542,0.677-1.075,0.597c-0.606-0.141-1.293-0.086-1.778,0.143l-0.08,0.04l-0.02,0.086
		c-0.226,0.986-0.234,1.956-0.241,2.895c-0.002,0.366-0.007,0.745-0.02,1.124l0.02-0.076l-0.132,0.257l0.17-0.103l-0.303-0.003
		c-1.051-0.016-2.241-0.032-3.047,0.833l-0.009,0.011L69.3,33.999c-0.319,0.45-0.261,1.03-0.158,1.438
		c0.384,1.266,1.435,1.214,2.363,1.169c0.5-0.022,0.974-0.045,1.34,0.112l-0.108-0.154l0.256,2.828l0.005-0.064
		c-0.071,0.27-0.216,0.972,0.002,1.646l0.01-0.132c-0.221,0.493-0.182,1.002-0.141,1.491c0.042,0.527,0.082,1.024-0.224,1.429
		l0.116-0.072c-0.247,0.043-0.515,0.063-0.8,0.084c-0.793,0.06-1.689,0.126-2.26,0.745c-0.319,0.369-0.315,0.823-0.312,1.154
		c0.003,0.046,0.003,0.088,0.003,0.127v0.022l0.004,0.021c0.331,1.392,1.538,1.359,2.51,1.334c0.453-0.012,0.882-0.023,1.213,0.084
		l-0.128-0.169l0.131,3.213c0.009,0.199,0.086,0.366,0.227,0.486c0.249,0.218,0.604,0.216,0.742,0.206
		c1.247,0.01,2.536-0.014,3.783-0.038c2.09-0.039,4.251-0.079,6.343,0.038l-0.113-0.047c0.575,0.521,1.237,0.802,1.824,1.05
		l0.026,0.012l0.034,0.013l0.036,0c0.879,0.015,1.503-0.315,2.08-1.103l-0.151,0.076c0.617,0.012,1.186-0.041,1.735-0.09
		c0.75-0.068,1.458-0.133,2.229-0.04l0.009,0.001h0.009c1.407,0.028,2.741-0.051,4.026-0.128c0.945-0.056,1.922-0.113,2.921-0.129
		h0.038l0.034-0.016c0.68-0.311,0.651-1.025,0.629-1.652c-0.007-0.188-0.015-0.381-0.007-0.564c0.003-0.126-0.006-0.265-0.018-0.41
		c-0.031-0.439-0.069-0.938,0.229-1.276l-0.089,0.057c0.458-0.127,0.917-0.139,1.36-0.152c0.528-0.015,1.072-0.031,1.61-0.24
		c0.696-0.2,0.714-0.852,0.729-1.375c0.007-0.158,0.011-0.308,0.031-0.439l0.007-0.038l-0.01-0.036
		c-0.324-1.296-1.38-1.208-2.313-1.129c-0.572,0.047-1.115,0.093-1.497-0.14l0.088,0.129c-0.162-1.039-0.171-2.175-0.184-3.273
		c-0.007-0.789-0.014-1.532-0.074-2.238l-0.001,0.044c0.033-0.2,0.021-0.42,0.014-0.633c-0.023-0.407-0.042-0.793,0.202-1.076
		l-0.11,0.062c0.317-0.054,0.667-0.064,1.039-0.076c0.879-0.028,1.879-0.059,2.534-0.75l0.043-0.043l0.007-0.06
		c0.15-1.12-0.147-1.939-0.86-2.368l-0.008-0.004l-0.007-0.005c-0.701-0.331-1.473-0.259-2.216-0.192
		c-0.19,0.018-0.384,0.036-0.573,0.046l0.094,0.02l-0.257-0.13l0.103,0.164c-0.007-0.459-0.045-0.934-0.078-1.395
		c-0.058-0.765-0.116-1.555-0.051-2.314l0.003-0.039l-0.012-0.035c-0.319-0.953-1.074-0.849-1.74-0.758
		c-0.37,0.052-0.753,0.105-1.077-0.001L96.601,28.368z"/>
	<path fill="#1E1E1E" d="M38.464,28.208c-0.021,0.025-0.031,0.032-0.031,0.032c0.007-0.005,0.041-0.021,0.085-0.012
		c0.046,0.009,0.07,0.037,0.077,0.047c-0.005-0.009-0.016-0.035-0.021-0.052c-0.021-0.062-0.047-0.134-0.115-0.18l-0.033-0.023
		l-0.039-0.006c-0.541-0.106-0.863,0.338-1.097,0.665c-0.081,0.108-0.154,0.212-0.227,0.286l0.043-0.033
		c-0.378,0.21-0.866,0.181-1.337,0.153c-0.677-0.039-1.375-0.08-1.809,0.547l-0.026,0.035l-0.005,0.042
		c-0.086,0.571-0.081,1.175-0.079,1.758c0.004,0.747,0.008,1.52-0.174,2.205l0.125-0.131c-0.338,0.1-0.708,0.117-1.101,0.137
		c-0.358,0.018-0.727,0.036-1.074,0.119L31.618,33.8l-0.011,0.002l-0.142,0.05c-0.579,0.199-1.369,0.472-1.395,1.275l0.003-0.028
		c-0.092,0.481,0.015,1.152,0.582,1.594l-0.03-0.029c0.465,0.567,1.164,0.531,1.839,0.496c0.53-0.026,1.028-0.053,1.421,0.187
		L33.8,37.222c0.141,0.798,0.131,1.64,0.125,2.531c-0.004,0.381-0.008,0.777,0.001,1.168c-0.01,0.319,0.011,0.67,0.029,1.042
		c0.046,0.807,0.092,1.642-0.148,2.364l0.19-0.126l-0.184-0.014c-1.055-0.083-2.37-0.187-3.182,0.717
		c-0.334,0.418-0.226,1.126-0.035,1.606c0.402,1.096,1.505,1.054,2.478,1.018c0.301-0.011,0.615-0.023,0.895-0.002l-0.067-0.018
		c0.296,0.143,0.265,0.583,0.196,1.141c-0.021,0.177-0.043,0.343-0.043,0.491v0.029l0.008,0.027c0.088,0.272,0.083,0.596,0.076,0.91
		c-0.012,0.601-0.026,1.279,0.658,1.64l0.033,0.017l0.038,0.003c2.353,0.214,4.784,0.104,7.132-0.003
		c1.253-0.057,2.544-0.115,3.808-0.124l-0.109-0.036c0.526,0.377,1.02,0.697,1.752,0.804l-0.029-0.007
		c0.638,0.203,1.19-0.219,1.634-0.557c0.113-0.085,0.221-0.167,0.324-0.236l-0.091,0.03c3.522-0.248,7.242-0.184,10.522-0.128
		l0.03,0.001l0.031-0.01l0.077-0.025c0.337-0.108,0.797-0.256,0.941-0.74l0.01-0.031l-0.001-0.031l-0.13-2.57l-0.023,0.1
		c0.102-0.177,0.11-0.391,0.118-0.578c0.016-0.365,0.047-0.459,0.258-0.487c0.253-0.025,0.534-0.015,0.83-0.004
		c0.614,0.023,1.312,0.048,1.931-0.272l0.023-0.012l0.02-0.018c0.434-0.415,0.652-1.066,0.57-1.7l-0.003-0.017L64.485,45.1
		c-0.421-1.273-1.598-1.306-2.637-1.336c-0.352-0.01-0.683-0.019-0.976-0.072l0.149,0.154c-0.321-2.243-0.3-5.09-0.255-7.037
		l-0.054,0.127l0.258-0.257l-0.063,0.041c0.311-0.12,0.698-0.136,1.107-0.15c0.798-0.03,1.703-0.063,2.198-0.96l0.016-0.026
		l0.005-0.03c0.01-0.05,0.019-0.101,0.029-0.15c0.063-0.322,0.13-0.655-0.037-1.104c-0.482-1.046-1.592-1.022-2.57-1
		c-0.332,0.007-0.648,0.014-0.923-0.019l0.062,0.018l-0.259-0.128l0.102,0.133c-0.159-0.893-0.146-1.802-0.134-2.68l0.007-0.499
		v-0.025l-0.007-0.024c-0.026-0.104-0.033-0.243-0.039-0.389c-0.017-0.394-0.036-0.935-0.623-1.031
		c-0.399-0.057-0.818,0.001-1.223,0.06c-0.828,0.118-1.543,0.22-1.986-0.607l-0.062-0.117l-0.133,0.022
		c-0.639,0.108-1.216,0.401-1.723,0.66l0.042-0.016c-0.886,0.214-1.839,0.236-2.848,0.261c-1.669,0.039-3.393,0.08-4.797,1.053
		l0.193-0.01c-0.13-0.072-0.264-0.169-0.405-0.273c-0.381-0.28-0.811-0.595-1.378-0.52l0.049,0c-0.774-0.1-1.584-0.095-2.369-0.089
		c-1.67,0.012-3.246,0.021-4.484-0.902l-0.143-0.108L38.464,28.208z"/>
	<path fill="#1E1E1E" d="M78.72,77.938l-0.056-0.062c-0.32-0.4-0.81-1.003-1.561-0.768l-0.011,0.003l-0.014,0.006
		c-0.693,0.336-1.374,0.593-2.02,0.759l0.026-0.006c-0.84,0.086-1.699,0.086-2.527,0.084c-1.544-0.004-3.136-0.009-4.591,0.572
		l0.026-0.009c-0.222,0.051-0.386,0.218-0.532,0.365c-0.177,0.177-0.294,0.285-0.438,0.272l0.111,0.051
		c-1.174-1.11-2.711-1.12-4.197-1.136c-0.56-0.002-1.138-0.009-1.691-0.069c-0.341-0.011-0.673-0.004-1.025,0.003
		c-1.151,0.026-2.342,0.051-3.271-0.495c-0.627-0.361-1.101,0.077-1.447,0.398c-0.104,0.097-0.201,0.185-0.297,0.254l0.1-0.035
		l-2.442,0.129l-0.038,0.002l-0.036,0.018c-0.742,0.372-0.661,1.062-0.588,1.673c0.041,0.345,0.084,0.706-0.016,1.001l-0.013,0.035
		l0.003,0.036c0.007,0.147,0.021,0.286,0.038,0.418c0.052,0.47,0.094,0.843-0.253,1.25l0.06-0.045
		c-0.365,0.185-0.833,0.18-1.285,0.18c-0.762-0.004-1.625-0.007-2.018,0.942c-0.305,0.586-0.184,1.381,0.296,1.87l-0.016-0.021
		c0.607,0.844,1.627,0.737,2.523,0.644c0.208-0.022,0.404-0.046,0.589-0.055l-0.09-0.017l0.257,0.129l-0.099-0.132
		c0.09,0.463,0.103,0.872,0.113,1.3c0.012,0.466,0.025,0.951,0.143,1.528l-0.004-0.046l-0.255,4.24l0.053-0.12l-0.257,0.256
		l0.077-0.047c-0.33,0.103-0.703,0.118-1.062,0.134c-0.701,0.028-1.424,0.058-1.864,0.713l0.019-0.024
		c-0.527,0.559-0.526,1.343-0.291,1.872c0.565,1.012,1.533,1.019,2.47,1.024c0.425,0.002,0.866,0.005,1.251,0.107l-0.134-0.138
		c0.114,0.528,0.071,1.096,0.026,1.695L52.43,99.12c-0.002,0.227,0.034,0.417,0.067,0.584c0.056,0.287,0.08,0.442-0.033,0.604
		l-0.042,0.063l0.011,0.07c0.06,0.391,0.218,1.426,1.23,1.314c2.419-0.092,4.666-0.133,6.661-0.129
		c1.306-0.042,2.645-0.026,3.938-0.012l1.461,0.012l-0.088-0.021c0.182,0.097,0.34,0.237,0.505,0.384
		c0.326,0.293,0.696,0.622,1.279,0.536l-0.099-0.013c1.014,0.426,1.771-0.327,2.38-0.934l-0.112,0.048
		c3.698-0.228,7.04-0.268,10.52-0.129l0.01,0.002l0.011-0.002c0.075-0.005,0.155-0.009,0.237-0.012
		c0.511-0.022,1.146-0.051,1.563-0.569l0.05-0.062l-0.01-0.077c-0.103-0.849-0.068-1.722-0.033-2.57
		c0.021-0.438,0.036-0.854,0.033-1.266l-0.008,0.061l0.129-0.386l-0.139,0.123c0.386-0.08,0.798-0.095,1.199-0.107
		c0.909-0.031,1.844-0.062,2.503-0.855l0.011-0.013l0.01-0.014c0.2-0.354,0.283-0.964,0-1.468l0.015,0.034
		c-0.367-1.115-1.388-1.061-2.287-1.012c-0.367,0.023-0.749,0.042-1.071-0.013l-0.028-0.005l-0.031,0.005
		c-0.133,0.02-0.228,0-0.297-0.064c-0.114-0.107-0.149-0.333-0.132-0.506c0-0.018,0-6.443,0-6.443l-0.008,0.058l0.127-0.386
		l-0.112,0.116c0.38-0.14,0.833-0.165,1.265-0.188c0.837-0.047,1.7-0.097,2.174-0.92l-0.012,0.018c0.349-0.466,0.349-1.044,0-1.508
		l0.025,0.047c-0.323-0.849-1.007-0.887-1.666-0.922c-0.261-0.013-0.528-0.029-0.773-0.091l-0.051-0.013l-0.047,0.016
		c-0.388,0.106-0.881,0.06-1.289-0.12l0.103,0.113c-0.194-0.629-0.116-1.251-0.044-1.853c0.081-0.653,0.162-1.326-0.087-2.012
		l-0.001-0.009l-0.006-0.009c-0.363-0.746-1.074-0.699-1.699-0.66c-0.377,0.025-0.767,0.05-1.103-0.075L78.72,77.938z"/>
	<path fill="#FFFFFF" stroke="#1E1E1E" stroke-width="5.210000e-04" d="M95.151,28.837c0.131,5.668,0.131,11.024,0.258,16.833
		c-0.343,0.937-1.628,0.615-2.441,0.9l-2.957,0.128c-1.154-0.039-2.225,0.175-3.212,0.514l-0.128-0.128
		c-0.118-5.832-0.011-11.025-0.257-16.706c0.086-0.37,0.409-0.692,0.77-0.898c2.529-0.757,5.475,0.26,7.841-0.9L95.151,28.837
		L95.151,28.837z"/>
	<path fill="#FFFFFF" stroke="#1E1E1E" stroke-width="5.210000e-04" d="M97.078,29.994c-0.19,2.853,0.024,5.53,0,8.481
		c0.077,2.886,0.134,5.831,0.128,8.61c-0.426,0.166-0.691-0.37-0.899-0.643c-0.437-1.496-0.221-2.995-0.386-4.498
		c0.005-1.441-0.051-2.995-0.127-4.498c0.024-2.619,0.024-5.244-0.128-8.097c0.204-0.199-0.01-0.627,0.255-0.77
		C96.461,28.885,96.78,29.474,97.078,29.994L97.078,29.994z"/>
	<path fill="#FFFFFF" stroke="#1E1E1E" stroke-width="5.210000e-04" d="M79.988,29.351c1.96,0.123,4.211-0.573,5.652,0.9
		c0.7,1.204,0.165,2.756,0.386,3.984c-0.007,4.395,0.208,8.411,0,12.722c-0.437,0.401-1.025-0.188-1.542-0.128
		c-1.945-0.22-3.979,0.208-5.911-0.128c-0.479-0.252-1.55-0.252-1.285-1.156c-0.051-5.575-0.265-11.251-0.129-16.577l0.129-0.128
		L79.988,29.351L79.988,29.351z"/>
	<path fill="#FFFFFF" stroke="#1E1E1E" stroke-width="5.210000e-04" d="M76.519,31.535c0.024,2.864,0.024,5.756,0.128,8.611
		l0.127,4.369c-0.286,0.378,0.09,0.7-0.127,1.028c0.323,0.958-0.587,1.708-1.157,2.313h-0.127
		c-0.213-3.873,0.109-7.459-0.129-11.309c0.023-1.988-0.032-3.701-0.13-5.526c0.046-0.852,0.742-1.441,1.285-2.056
		C76.702,29.74,76.437,30.705,76.519,31.535L76.519,31.535z"/>
	<path fill="#FFFFFF" stroke="#1E1E1E" stroke-width="5.210000e-04" d="M56.342,29.094c-0.094,1.986,0.067,4.396,0.129,6.425
		c-0.009,3.646-0.116,7.394,0,11.18c-0.918,0.872-2.364,0.658-3.599,0.771c-1.55-0.113-3.478-0.06-5.012,0.257
		c-0.18-0.745-0.019-1.442-0.128-2.185c0.056-4.826-0.158-9.323-0.257-14.135c0.901-2.256,3.632-1.345,5.654-1.542
		c0.977-0.071,2.101-0.178,2.956-0.771H56.342L56.342,29.094z"/>
	<path fill="#FFFFFF" stroke="#1E1E1E" stroke-width="5.210000e-04" d="M98.494,29.608c0.16,1.204-0.214,2.649,0.386,3.855
		c1.061,0.775,3.416-0.992,3.596,1.157c-0.606,1.171-2.48,0.422-3.596,0.77c-0.331,0.133-0.276,0.615-0.259,1.029
		c0.089,1.995,0.033,3.762,0,5.654c0.25,0.678-0.182,1.534,0.385,2.184c1.254,0.422,2.756-0.65,3.728,0.514
		c-0.063,0.39-0.222,0.764-0.515,0.899c-1.152,0.507-2.76-0.456-3.468,0.771c0.011,0.54-0.097,1.236-0.13,1.798
		c0.089,0.562,0.3,1.259-0.26,1.543c-3.402,0.25-6.774,0.089-10.15,0.128c-0.104-0.092,0.003-0.145,0-0.257
		c0.699-0.853,1.931-0.264,2.955-0.643l6.04-0.127c1.021-0.243,0.484-1.474,0.645-2.186c-0.106-1.966-0.268-4.161-0.13-6.167
		c-0.03-2.063-0.082-4.366-0.128-6.554c0.151-0.221,0.046-0.382,0-0.643c-0.117-1.344,0.26-2.684-0.127-3.984
		C97.69,29.151,98.71,28.777,98.494,29.608L98.494,29.608z"/>
	<path fill="#FFFFFF" stroke="#1E1E1E" stroke-width="5.210000e-04" d="M44.52,29.865c0.698,0.144,1.287,0.357,1.928,0.514
		c0.538,0.647,0.377,1.396,0.515,2.313c-0.031,3.368,0.184,6.741,0.129,10.024c-0.053,1.482,0.162,2.874,0,4.369
		c0.001,0.326,0.107,0.539,0,0.771c-0.428,0.197-0.749-0.232-1.158-0.257c-2.106-0.295-4.195,0.24-6.296-0.257
		c-0.417-0.307-1.111-0.36-1.158-1.028c-0.167-4.579-0.061-8.916,0-13.75c-0.113-0.36-0.061-0.788,0-1.156
		c-0.007-0.703-0.275-1.559,0-2.186C40.346,30.276,42.434,29.794,44.52,29.865L44.52,29.865z"/>
	<path fill="#FFFFFF" stroke="#1E1E1E" stroke-width="5.210000e-04" d="M74.719,29.736c-0.48,0.593-0.318,1.611-0.26,2.313
		c0.315,3.903,0.154,8.025,0.26,11.823l-0.128,4.369c0.076,0.455,0.449,0.83,0.771,0.9c2.785,0.037,5.464-0.124,8.096,0.129
		c0.312,0.015,1.061,0.122,0.771,0.643c-0.996,0.229-2.119,0.068-3.086,0.129c-1.496-0.007-2.835,0.046-4.37,0
		c-0.874,0.1-1.786-0.007-2.696,0c-0.158-0.81,0.054-1.613-0.13-2.313c-0.189-0.531,0.291-1.387-0.515-1.542
		c-0.854,0.155-1.815,0.047-2.697,0c-0.244-0.273-0.515-0.596-0.388-1.027l0.388-0.257l2.827-0.257
		c0.518-0.553,0.195-1.569,0.257-2.313c-0.062-1.933,0.044-4.396-0.127-6.296l-0.26-0.257l-3.085-0.128
		c-0.23-0.231-0.447-0.659-0.255-1.027l0.514-0.386l2.7-0.128l0.256-0.258c0.089-0.735-0.02-1.377,0-2.185
		c0.089-0.584-0.127-1.28,0-2.056C73.919,29.474,74.454,29.474,74.719,29.736L74.719,29.736z"/>
	<path fill="#FFFFFF" stroke="#1E1E1E" stroke-width="5.210000e-04" d="M59.684,30.123c-0.063,0.689-0.063,1.491,0,2.183
		c-0.063,0.647-0.223,1.559,0.386,1.928l3.083,0.129c0.378,0.196,0.271,0.68,0.13,1.027l-0.386,0.257
		c-0.918-0.018-1.938-0.071-2.699,0.256c-0.577,0.315-0.308,1.119-0.387,1.543c0.026,1.396-0.028,2.627,0.13,3.855
		c-0.104,1.182-0.104,2.253,0,3.213c1.18,0.753,3-0.532,3.727,0.899c0.078,0.497-0.404,0.71-0.771,0.771
		c-0.918,0.155-2.15-0.221-2.956,0.386c0.003,1.108,0.162,2.446,0.129,3.47c-0.072,0.689-0.876,0.314-1.285,0.642
		c-0.18-0.22-0.395-0.22-0.644-0.128h-3.597c-0.438-0.092-0.973,0.014-1.414,0c-1.11,0.068-2.343-0.039-3.47,0
		c-0.105-0.092-0.212-0.2-0.13-0.257l0.515-0.257c1.705-0.488,3.687-0.381,5.526-0.386l2.828-0.129
		c0.366-0.026,0.579-0.348,0.642-0.77c-0.008-5.308-0.275-10.769-0.257-15.807l-0.128-2.056c-0.104-0.403-0.803-0.937-0.257-1.157
		C58.818,29.849,59.567,29.474,59.684,30.123L59.684,30.123z"/>
	<path fill="#FFFFFF" stroke="#1E1E1E" stroke-width="5.210000e-04" d="M37.708,30.123c0.014,2.294,0.174,4.436,0,6.681
		c0.12,1.022-0.041,1.719,0,2.828c0.068,2.584-0.147,4.994,0.128,7.453c-0.169,0.594-0.651,0.968-1.028,1.413
		c-0.104,0.144-0.263-0.017-0.255-0.127c0.045-4.12-0.008-7.493-0.129-11.438c-0.04-1.623-0.147-3.392-0.257-5.012
		c0.217-0.948,0.858-1.324,1.413-2.056L37.708,30.123L37.708,30.123z"/>
	<path fill="#FFFFFF" stroke="#1E1E1E" stroke-width="5.210000e-04" d="M58.013,31.15c-0.159,0.518,0.271,0.946,0,1.413
		c-0.052,1.835,0.163,3.549,0.128,5.397c-0.019,0.615,0.143,1.364-0.128,2.057c0.271,1.02,0.218,2.039,0.128,3.083
		c0.09,1.686,0.196,3.293,0.129,5.013c-0.523-0.274-0.736-0.917-1.156-1.286l-0.128-7.067c0.013-3.219-0.148-6.647-0.129-9.637
		C57.427,30.116,57.693,30.812,58.013,31.15L58.013,31.15z"/>
	<path fill="#FFFFFF" stroke="#1E1E1E" stroke-width="5.210000e-04" d="M36.167,30.123c-0.105,0.474-0.427,0.743-0.643,1.156
		c-0.158,1.674,0.378,3.333,0,5.141c0.378,3.816,0.216,7.993,0.385,11.821c0.313,0.616-0.223,1.312,0.515,1.671
		c1.512,0.015,3.118,0.122,4.626,0c0.849,0.122,1.705-0.092,2.569,0c0.636,0.175,1.652-0.092,2.057,0.514v0.257l-2.569,0.128h-7.326
		c-0.202,0.24-0.362-0.029-0.514,0c-0.169-1.42,0.151-2.597-0.386-3.984l-0.257-0.257c-0.973-0.017-2.043,0.037-2.956-0.128
		c-0.317-0.102-0.372-0.531-0.255-0.771c0.686-0.938,2.132-0.189,3.084-0.642c0.386-0.189,0.44-0.724,0.384-1.157
		c-0.158-2.458,0.27-4.922-0.128-7.453l-0.642-0.386c-0.993-0.134-2.278,0.507-3.085-0.386c0.057-0.284,0.218-0.714,0.515-0.9
		c1.04-0.296,3.182,0.776,3.34-1.029v-3.34C35.205,30.009,35.794,30.062,36.167,30.123L36.167,30.123z"/>
	<path fill="#1E1E1E" stroke="#1E1E1E" stroke-width="0" stroke-linecap="square" stroke-miterlimit="2" d="M54.029,33.591
		c0.023,0.594,0.56,1.452,0,1.928c-0.458-0.53-0.994-1.388-1.799-1.542c-0.372-0.06-0.748-0.006-1.03,0.257
		c-0.199,0.969-0.04,2.039,0.13,3.084c0.261,0.239,0.689,0.025,1.028,0c0.623-0.242,0.409-1.366,1.156-1.157
		c0.271,0.969,0.003,1.718,0,2.57c0.003,0.218-0.156,0.218-0.257,0.257c-0.329-0.413-0.49-1.002-1.027-1.028
		c-0.372,0.026-1.015-0.188-1.03,0.386c-0.093,0.818,0.016,1.835,0.13,2.698c0.742,0.262,1.599,0.208,2.185-0.128
		c0.646-0.359,0.753-1.11,1.157-1.542c0.238-0.103,0.452,0.218,0.385,0.386c-0.094,0.582,0.282,1.707-0.513,1.927
		c-1.776,0.155-3.543,0.155-5.398,0.129c-0.073-0.135-0.073-0.403,0-0.515c1.268-0.745,0.677-2.192,0.771-3.341
		c0.012-1.313,0.173-2.544-0.257-3.727c-0.158-0.263-1.016-0.049-0.771-0.644c1.146-0.37,2.593,0.058,3.854-0.127
		C53.142,33.113,54.053,32.632,54.029,33.591L54.029,33.591z"/>
	<path fill="#1E1E1E" stroke="#1E1E1E" stroke-width="0" stroke-linecap="square" stroke-miterlimit="2" d="M91.552,33.334
		c-0.339,0.368-0.982,0.797-0.898,1.414c-0.138,0.829,0.076,1.9,0,2.699c0.236,1.075-0.352,2.895,1.027,3.342
		c0.121,0.464-0.414,0.303-0.641,0.385c-0.845-0.136-1.648,0.187-2.314-0.129c-0.028-0.381,0.452-0.435,0.645-0.771l0.127-0.643
		v-5.141c-0.105-0.734-1.124-0.626-1.028-1.156c0.923-0.221,1.994-0.328,2.956,0H91.552L91.552,33.334z"/>
	<path fill="#1E1E1E" stroke="#1E1E1E" stroke-width="0" stroke-linecap="square" stroke-miterlimit="2" d="M84.1,34.491
		c0.473,0.552,0.419,1.409,0.13,2.057c-0.246,0.637-0.996,1.01-1.542,1.414c0.334,0.936,1.188,1.578,1.797,2.313
		c0.304,0.336,0.891,0.283,0.899,0.771c-0.436,0.422-1.133,0.155-1.67,0.129c-0.959-1.045-1.71-2.277-2.696-3.213
		c-0.299-0.027-0.459,0.24-0.515,0.514l0.126,1.927c0.197,0.476,1.159,0.208,0.899,0.772c-1.022,0.079-1.987,0.347-2.955,0.128
		c-0.265-0.425,0.377-0.478,0.515-0.771l0.257-0.771l-0.127-5.526c-0.106-0.37-0.748-0.316-0.772-0.771l0.258-0.257
		C80.609,33.437,83.021,32.58,84.1,34.491L84.1,34.491z"/>
	<path fill="#1E1E1E" stroke="#1E1E1E" stroke-width="0" stroke-linecap="square" stroke-miterlimit="2" d="M46.319,33.978
		c-0.19,0.421-0.78,0.528-1.028,1.028c-0.394,2.338-1.626,4.212-1.928,6.553c-0.126,0.123-0.447,0.444-0.644,0.128
		c-0.821-2.309-1.785-4.611-2.569-6.939c-0.232-0.402-1.25-0.136-0.899-0.771c0.934-0.596,1.951-0.006,3.084-0.129
		c0.045,0.123-0.01,0.39-0.13,0.386c-0.308,0.165-0.628,0.433-0.515,0.771l1.415,3.726c0.022,0.165,0.131,0.433,0.257,0.257
		c0.302-0.146,0.142-0.521,0.256-0.77c0.313-1.035,0.743-2.106,0.9-3.342c-0.052-0.585-1.176-0.425-0.9-1.028
		c0.636-0.253,1.438-0.2,2.057-0.385C45.914,33.596,46.396,33.542,46.319,33.978L46.319,33.978z"/>
	<path fill="#FFFFFF" stroke="#FFFFFF" stroke-width="0" stroke-linecap="square" stroke-miterlimit="2" d="M82.557,34.234
		c0.57,0.647,0.732,1.45,0.515,2.313c-0.586,0.583-1.444,1.171-2.313,0.771l-0.255-0.13v-3.083c0.323-0.404,1.124-0.242,1.541-0.129
		L82.557,34.234L82.557,34.234z"/>
	<path fill="#FFFFFF" stroke="#1E1E1E" stroke-width="5.210000e-04" d="M96.821,48.113c0.014,0.208-0.307,0.208-0.515,0.257
		l-1.797-0.13c-2.117,0.187-4.689-0.133-6.812,0.515c-0.233-0.061-0.34-0.381-0.515-0.515c0.013-0.401,0.495-0.455,0.771-0.642
		c2.028-0.617,4.542-0.082,6.683-0.643c0.378-0.028,0.752-0.082,1.029-0.128C96.086,47.25,96.461,47.679,96.821,48.113
		L96.821,48.113z"/>
	<path fill="#FFFFFF" stroke="#1E1E1E" stroke-width="5.210000e-04" d="M80.885,47.471c1.546,0.047,3.206-0.381,4.629,0.386
		c0.024,0.251-0.191,0.358-0.258,0.514c-0.468,0.486-1.219,0.378-1.671,0.127c-2.546-0.07-5.009,0.144-7.581,0
		c0.271-0.606,0.807-1.087,1.284-1.542C78.522,47.09,79.594,47.624,80.885,47.471L80.885,47.471z"/>
	<path fill="#FFFFFF" stroke="#1E1E1E" stroke-width="5.210000e-04" d="M57.628,48.756c-0.201,0.475-0.951,0.046-1.415,0.129
		c-2.321,0.293-4.837-0.189-7.067,0.513c-0.286-0.22-0.608-0.381-0.771-0.642c0.271-0.488,0.912-0.435,1.286-0.515
		c2.305-0.509,4.714,0.508,6.811-0.513C56.998,47.732,57.427,48.268,57.628,48.756L57.628,48.756z"/>
	<path fill="#FFFFFF" stroke="#1E1E1E" stroke-width="5.210000e-04" d="M43.619,48.241c0.957,0.187,2.24-0.241,3.086,0.515
		c-0.096,0.314-0.309,0.475-0.515,0.514c-3.007-0.145-5.738,0.015-8.61,0l-0.128-0.129c0.431-0.445,0.751-1.195,1.415-1.413
		C40.186,48.481,42.059,48.321,43.619,48.241L43.619,48.241z"/>
	<path fill="#FFFFFF" stroke="#1E1E1E" stroke-width="5.210000e-04" d="M87.311,49.398c0.154,0.529-0.059,0.958-0.384,1.414
		c-0.319,0.293-0.96,0.4-1.413,0.129c-0.405-0.372-0.726-0.907-0.515-1.415c0.591-0.295,1.021-1.473,1.8-0.77L87.311,49.398
		L87.311,49.398z"/>
	<path fill="#FFFFFF" stroke="#1E1E1E" stroke-width="5.210000e-04" d="M48.761,50.041c0.205,0.368-0.169,0.851-0.387,1.157
		c-0.426,0.763-1.229,0.281-1.798,0c-0.18-0.36-0.02-0.735,0.129-1.157c0.173-0.274,0.493-0.65,0.898-0.771
		C48.056,49.285,48.324,49.713,48.761,50.041L48.761,50.041z"/>
	<path fill="#FFFFFF" stroke="#1E1E1E" stroke-width="5.210000e-04" d="M77.288,78.439c0.003,5.328,0.163,11.003,0.13,16.578
		c0.033,0.583,0.462,1.545-0.259,1.929c-1.154,0.527-2.439,0.1-3.597,0.259c-1.895,0.218-3.929-0.159-5.524,0.641
		c-0.225,0.056-0.277-0.21-0.388-0.256c0.11-2.256-0.266-5.201,0-7.454c0.27-0.263,0.698-0.263,1.027-0.13
		c0.261,0.348,0.528,0.935,0.386,1.415c-0.018,0.378-0.77,0.378-0.386,0.9c0.796,0.069,1.867,0.013,2.827,0
		c0.112-0.09,0.057-0.307,0-0.385c-1.762-0.94-1.496-3.081-2.184-4.628c-0.705-1.396-0.973-3.058-1.799-4.497
		c0.345-1.075-0.565-2.417,0.644-3.211c1.79-1.348,4.147-0.437,6.293-0.644c0.958-0.167,1.867-0.274,2.7-0.641
		C77.185,78.307,77.346,78.25,77.288,78.439L77.288,78.439z"/>
	<path fill="#FFFFFF" stroke="#1E1E1E" stroke-width="5.210000e-04" d="M63.539,78.955c1.17,0.101,2.562,0.156,3.212,1.415
		c0.206,0.936-0.062,2.06,0.129,3.084c0.022,1.171-0.832,2.35-0.899,3.597c-0.683,1.481-0.47,3.357-1.799,4.496
		c-0.223,0.199-0.651,0.521-0.257,0.773c0.784,0.013,2.068,0.497,2.57-0.256c-0.234-0.426-0.823-0.747-0.771-1.415
		c0.216-0.242,0.216-0.723,0.643-0.772c0.43-0.005,0.484,0.369,0.514,0.643c-0.029,1.332,0.077,3.099,0.127,4.626L66.88,97.59
		c-0.404,0.206-0.832-0.275-1.413-0.13c-1.24-0.307-2.473-0.037-3.728-0.128c-1.637-0.125-3.67,0.464-4.626-1.027
		c-0.222-1.024-0.222-1.829-0.257-2.829c-0.02-1.087,0.248-2.158,0-3.34c0.088-3.798-0.234-7.6,0-11.438
		c0.622-0.125,1.159,0.357,1.8,0.385L63.539,78.955L63.539,78.955z"/>
	<path fill="#FFFFFF" stroke="#1E1E1E" stroke-width="5.210000e-04" d="M80.503,79.083c0.003,1.524,0.003,2.811,0.255,4.112
		l0.26,0.258c1.093,0.044,2.378-0.116,3.34,0.256c0.215,0.272,0.161,0.539,0.127,0.9c-0.501,0.443-1.303,0.227-2.055,0.256
		c-0.481,0.027-1.069-0.029-1.545,0.256c-0.059,1.163-0.275,2.18,0,3.342c-0.22,1.141-0.059,2.156,0,3.342
		c0.102,0.262-0.166,0.424,0,0.641c-0.059,0.637-0.059,1.279,0.388,1.673c1.104,0.409,2.176-0.234,3.212,0.256
		c0.304,0.1,0.464,0.421,0.385,0.771c0.132,0.454-0.458,0.454-0.77,0.515c-0.918,0.153-1.989-0.167-2.827,0.256
		c-0.393,0.541-0.286,1.397-0.255,2.058c-0.138,0.73,0.021,1.481,0,2.312c-1.798,0.4-3.619-0.028-5.399,0.129
		c-1.967-0.103-4.057,0.271-6.04,0c-0.104-0.318,0.431-0.263,0.643-0.386c1.396-0.253,2.893-0.093,4.37-0.259
		c1.685,0.166,3.395,0.006,5.14,0c0.611-0.208,0.344-0.905,0.515-1.284c-0.491-5.724-0.33-12.096-0.386-17.991
		c-0.053-0.424-0.318-0.904-0.386-1.413C79.754,79.001,80.238,78.733,80.503,79.083L80.503,79.083z"/>
	<path fill="#FFFFFF" stroke="#1E1E1E" stroke-width="5.210000e-04" d="M56.086,79.725c-0.052,1.096,0.108,2.383,0,3.47
		c0.108,0.679-0.052,1.536,0,2.185c0.003,1.762,0.003,3.365,0.127,5.141v2.57v2.312c-0.124,0.519,0.196,0.949,0.129,1.544
		c-0.47,0.313-0.683,1.011-1.155,1.285l-0.13-0.257l-0.129-5.14c0.088-0.552,0.196-1.41-0.128-2.058
		c0.431-0.53,0.056-1.172,0.128-1.67c-0.072-2.929-0.125-5.66-0.128-8.61c0.056-0.637,0.646-1.119,1.156-1.542
		C56.142,79.11,56.034,79.484,56.086,79.725L56.086,79.725z"/>
	<path fill="#FFFFFF" stroke="#FFFFFF" stroke-width="0" stroke-linecap="square" stroke-miterlimit="2" d="M78.96,79.984
		c0.151,1.857-0.061,3.303,0.258,5.011c-0.374,2.682,0.002,5.092,0,7.84c-0.054,1.641,0.002,3.246,0.127,5.011h-0.127
		c-1.283-0.96-0.748-2.565-0.899-3.985c-0.333-2.491-0.116-5.116-0.259-7.581c-0.019-1.978-0.019-4.816,0-7.196
		C78.415,79.269,78.899,79.645,78.96,79.984L78.96,79.984z"/>
	<path fill="#FFFFFF" stroke="#1E1E1E" stroke-width="5.210000e-04" d="M54.158,79.339c-0.267,0.359-0.212,0.947-0.257,1.285
		c0.205,0.947,0.045,2.019,0.128,2.956c0.077,2.65,0.132,4.897,0.129,7.583c-0.105,1.759,0.162,3.365,0.128,5.268
		c0.034,1.098-0.233,2.327,0.258,3.34c0.741,0.487,1.65-0.048,2.569,0.13l3.855-0.13c1.223,0.222,2.831-0.155,4.111,0.13
		c0.218,0.145,0.592,0.145,0.644,0.515l-0.129,0.127c-3.616,0.198-6.884-0.018-10.281,0.129c-0.189,0.176-0.298-0.092-0.514-0.256
		c-0.373,0.059-1.015,0.539-1.285,0c0.109-1.175,0.057-2.515,0-3.599c-0.104-0.466-0.427-1.003-1.028-0.9
		c-0.896,0.004-1.593,0.218-2.441,0c-0.169-0.262-0.384-0.692-0.128-0.899c0.496-0.862,1.512-0.271,2.184-0.513
		c0.452-0.029,0.987,0.077,1.286-0.385c0.237-2.16,0.078-4.411,0-6.555c0.185-0.8-0.138-1.441-0.129-2.186
		c-0.705-0.327-1.399-0.221-2.186-0.258c-0.5-0.016-1.303,0.252-1.412-0.512c-0.105-0.251,0.162-0.627,0.514-0.644l2.441-0.127
		c0.473-0.071,0.634-0.501,0.643-0.902l0.129-3.597C53.624,79.217,53.892,79.269,54.158,79.339L54.158,79.339z"/>
	<path fill="#1E1E1E" stroke="#1E1E1E" stroke-width="0" stroke-linecap="square" stroke-miterlimit="2" d="M75.362,83.581
		l0.127,2.056c-0.072,0.167-0.232,0.274-0.386,0.129c-0.49-0.499-0.703-1.407-1.411-1.67c-0.312-0.007-0.684,0.1-0.901,0.256
		c-0.212,0.435-0.264,0.916-0.127,1.285c1.307,1.344,3.772,2.04,3.595,4.241c0.017,0.957-0.359,1.815-1.155,2.187
		c-0.865,0.537-1.723-0.318-2.439,0.256c-0.137,0.176-0.407,0.229-0.645,0.127c-0.352-0.541-0.19-1.292-0.127-1.926
		c-0.063-0.434-0.386-0.916,0.127-1.156c0.454,0.132,0.508,0.776,0.645,1.156c0.237,0.529,0.717,1.118,1.283,1.156
		c0.666,0.016,1.254-0.251,1.415-0.899c0.324-0.96-0.695-1.87-1.415-2.569c-1.152-0.211-1.85-1.282-2.312-2.184
		c-0.129-0.865,0.086-1.775,0.897-2.314c0.58-0.64,1.814,0.272,2.186-0.641C75.04,83.019,75.364,83.23,75.362,83.581L75.362,83.581z
		"/>
	<path fill="#1E1E1E" stroke="#1E1E1E" stroke-width="0" stroke-linecap="square" stroke-miterlimit="2" d="M59.556,83.454
		c1.35,0.153,2.795,0.153,4.111,0c0.346-0.062,0.505-0.491,0.899-0.258l0.129,0.258c-0.254,0.742-0.254,1.652-0.771,2.183
		c-0.609,0.005-0.18-0.637-0.386-1.027c-0.276-0.308-0.651-0.521-1.028-0.514c-0.16,0.1-0.479,0.1-0.386,0.385l0.129,2.443v4.24
		c0.151,0.528,0.902,0.474,1.156,0.9c-0.254,0.485-0.898,0.269-1.413,0.383c-0.716-0.164-1.68,0.263-2.187-0.256
		c0.187-0.393,0.988-0.606,1.03-1.157c0.173-2.556,0.012-4.323-0.13-6.683c-0.126-0.316-0.447-0.156-0.771-0.127
		c-0.427,0.295-0.907,0.668-1.029,1.285c-0.146,0.078-0.359,0.238-0.512,0.127c-0.438-0.37,0.099-0.69,0-1.027
		C58.658,84.195,58.604,82.269,59.556,83.454L59.556,83.454z"/>
	<path fill="#FFFFFF" stroke="#FFFFFF" stroke-width="0" stroke-linecap="square" stroke-miterlimit="2" d="M68.038,87.951
		c0.097,0.315,0.417,0.743,0.128,1.156c-0.567,0.016-1.156,0.122-1.8,0v-0.256c0.27-1.014,0.484-1.976,0.898-2.956
		C67.761,86.392,67.813,87.194,68.038,87.951L68.038,87.951z"/>
	<path fill="#FFFFFF" stroke="#1E1E1E" stroke-width="5.210000e-04" d="M78.96,99.001l-0.387,0.131c-2.728,0.001-5.46-0.053-8.353,0
		c-0.532,0.109-1.121,0.484-1.414-0.131c-0.19-0.082-0.352-0.242-0.257-0.514c1.244-0.586,2.903-0.479,4.372-0.513
		c1.639,0.09,3.354,0.09,4.88-0.515C78.255,97.851,78.79,98.278,78.96,99.001L78.96,99.001z"/>
	<path fill="#FFFFFF" stroke="#1E1E1E" stroke-width="5.210000e-04" d="M61.868,97.846c1.502,0.111,3.321,0.056,4.627,0.771
		c-0.182,1.376-1.521,0.196-2.313,0.515c-2.793-0.053-5.684,0.057-8.354,0l-0.129-0.131c0.549-0.402,0.816-1.15,1.414-1.411
		C58.498,98.171,60.264,98.171,61.868,97.846L61.868,97.846z"/>
	<path fill="#FFFFFF" stroke="#1E1E1E" stroke-width="5.210000e-04" d="M68.807,100.416c-0.028,0.432-0.19,0.859-0.514,1.156
		c-0.373,0.077-0.854,0.187-1.286,0c-0.479-0.297-0.479-0.885-0.384-1.415c0.119-0.434,0.549-0.809,0.899-1.025
		C68.028,99.456,68.829,99.724,68.807,100.416L68.807,100.416z"/>
</g>
</svg>
