<?xml version="1.0" encoding="iso-8859-1"?>
<!-- Generator: Adobe Illustrator 22.1.0, SVG Export Plug-In . SVG Version: 6.00 Build 0)  -->
<svg version="1.1" id="Layer_1" xmlns="http://www.w3.org/2000/svg" xmlns:xlink="http://www.w3.org/1999/xlink" x="0px" y="0px"
	 viewBox="0 0 1200 600" style="enable-background:new 0 0 1200 600;" xml:space="preserve">
<linearGradient id="SVGID_1_" gradientUnits="userSpaceOnUse" x1="201.6458" y1="888.0492" x2="201.6458" y2="559.3499" gradientTransform="matrix(0.7071 0 0 0.7071 133.6782 -191.8891)">
	<stop  offset="0" style="stop-color:#F1C205"/>
	<stop  offset="0.3314" style="stop-color:#93C94B"/>
	<stop  offset="0.4859" style="stop-color:#70C05A"/>
	<stop  offset="0.7506" style="stop-color:#12B259"/>
	<stop  offset="0.903" style="stop-color:#24AD69"/>
	<stop  offset="1" style="stop-color:#24AD69"/>
</linearGradient>
<path style="fill:url(#SVGID_1_);" d="M110.974,308.875l154.462-102.325c6.091-3.898,15.592-3.898,21.683,0L441.58,308.875
	c9.258,6.091,9.258,16.08,0,22.17l-20.709,13.643c-30.454-47.995-84.052-79.667-144.716-79.667
	c-60.908,0-114.263,31.916-144.716,79.667l-20.709-13.643C101.716,324.955,101.716,314.723,110.974,308.875z M276.156,307.657
	c-46.046,0-86.245,24.363-109.146,60.42l35.57,23.632c15.105-24.85,42.148-41.417,73.333-41.417
	c30.941,0,58.228,16.567,73.333,41.417l35.57-23.632C362.644,332.02,322.202,307.657,276.156,307.657z M276.156,393.172
	c-16.08,0-30.21,9.014-37.763,22.17l23.876,15.592c3.898,3.167,8.527,5.116,13.887,5.116s10.233-1.949,13.887-5.116l23.876-15.592
	C306.853,402.429,292.479,393.172,276.156,393.172z"/>
<path style="fill:#181B1E;" d="M544.392,319.352l38.737,55.548h-27.287l-29.236-43.123c0,14.131,0,28.992,0,43.123h-22.17V264.778
	h22.17c0,14.618,0,29.236,0,43.853l27.774-43.853h25.581L544.392,319.352z M621.38,265.022h-22.17v110.121h56.766v-22.17h-35.083
	L621.38,265.022L621.38,265.022z M721.512,261.124l46.29,114.019h-24.85l-4.385-11.938h-36.545l-4.385,11.938h-25.094l46.29-114.019
	L721.512,261.124z M730.526,342.496l-9.989-28.505l-10.232,28.505H730.526z M798.986,326.173l-22.658-61.151h-24.85l46.29,114.019
	h2.193l46.29-114.019h-25.094L798.986,326.173z M863.061,375.143h22.17V265.022h-22.17V375.143z M973.182,265.022l-22.414,38.006
	l-22.414-38.006h-26.799l38.25,60.42v49.701h21.927v-49.701l38.494-60.42H973.182L973.182,265.022z M1114,318.133
	c0,31.428-25.581,57.009-57.01,57.009s-57.01-25.581-57.01-57.009s25.581-57.009,57.01-57.009S1114,286.462,1114,318.133z
	 M1092.561,318.133c0-19.734-15.836-35.57-35.57-35.57s-35.57,15.836-35.57,35.57c0,19.734,15.836,35.57,35.57,35.57
	C1076.725,353.703,1092.561,337.624,1092.561,318.133z"/>
</svg>
