<?xml version="1.0" encoding="UTF-8" standalone="no"?>
<svg xmlns:rdf="http://www.w3.org/1999/02/22-rdf-syntax-ns#" xmlns="http://www.w3.org/2000/svg" xml:space="preserve" height="100" width="548.17" version="1.1" xmlns:cc="http://creativecommons.org/ns#" xmlns:dc="http://purl.org/dc/elements/1.1/" viewBox="0 0 548.17078 99.999999"><defs><clipPath id="a" clipPathUnits="userSpaceOnUse"><path d="m0 0h414v594h-414v-594z"/></clipPath></defs><g transform="matrix(5.5519 0 0 -5.5519 -876.29 715.21)"><g clip-path="url(#a)"><g transform="translate(212.13 126.59)"><path d="m0 0c-0.293 0-0.574-0.033-0.832-0.102h-2.738c-0.235 0-0.432-0.17-0.474-0.394-0.555 0.316-1.233 0.496-1.994 0.496-1.021 0-1.891-0.322-2.521-0.87-0.424 0.577-1.1 0.87-2.024 0.87-0.574 0-1.103-0.146-1.549-0.427-0.405 0.277-0.91 0.427-1.47 0.427-0.294 0-0.571-0.033-0.829-0.102h-2.243l-0.472 1.96c-0.066 0.268-0.331 0.427-0.596 0.351-0.262-0.072-4.061-1.115-4.061-1.115-0.255-0.072-0.406-0.335-0.337-0.592 0.068-0.256 0.164-0.604 0.164-0.604h-1.53v1.502c0 0.265-0.215 0.485-0.483 0.485h-2.523c-0.267 0-0.484-0.22-0.484-0.485v-1.891c-0.555 0.315-1.229 0.491-1.982 0.491-0.701 0-1.33-0.15-1.86-0.425-0.333 0.931-1.235 1.858-3.501 1.858h-2.406c-0.268 0-0.482-0.217-0.482-0.482v-7.017c0-0.267 0.214-0.483 0.482-0.483h2.576c0.265 0 0.482 0.216 0.482 0.483v1.645c0.447 0.028 0.854 0.118 1.214 0.255 0.362-1.498 1.698-2.486 3.495-2.486 0.759 0 1.435 0.178 1.992 0.494 0.043-0.221 0.237-0.391 0.474-0.391h6.42c0.298-0.067 0.614-0.103 0.949-0.103 0.397 0 0.772 0.033 1.125 0.103h9.513c0.236 0 0.433 0.17 0.474 0.393 0.555-0.318 1.231-0.496 1.993-0.496 0.761 0 1.439 0.178 1.994 0.496 0.042-0.223 0.239-0.393 0.474-0.393h5.776c0.265 0 0.483 0.216 0.483 0.483v3.298c0 1.658-1.081 2.768-2.689 2.768"/></g><g transform="translate(218.65 124.01)"><path d="m0 0c0 0.233 0.066 0.996 0.928 0.996 0.386 0 0.73-0.095 1.116-0.307l0.044-0.021c-0.191-0.421-0.298-0.897-0.298-1.415 0-0.029 0.007-0.058 0.007-0.088-0.26-0.067-0.514-0.111-0.737-0.111-0.484 0-1.06 0.166-1.06 0.946m37.426 2.48h-2.621c-0.198 0-0.403-0.147-0.459-0.336-0.061-0.187-0.147-0.458-0.147-0.458l-0.153 0.464c-0.06 0.185-0.265 0.33-0.458 0.33h-2.863c-0.254 0.068-0.522 0.104-0.809 0.104-0.295 0-0.572-0.033-0.832-0.102h-2.738c-0.192 0-0.356-0.113-0.435-0.277-0.473 0.246-1.048 0.379-1.716 0.379-0.82 0-1.505-0.123-2.167-0.387l-0.592-0.243c-0.458 0.389-1.047 0.63-1.741 0.63-0.293 0-0.578-0.036-0.84-0.104h-2.783c-0.136 0-0.261-0.059-0.349-0.151-0.356 0.169-0.782 0.255-1.284 0.255-0.578 0-1.106-0.146-1.55-0.427-0.406 0.277-0.909 0.427-1.471 0.427-0.291 0-0.574-0.033-0.83-0.102h-2.737c-0.238 0-0.434-0.17-0.474-0.394-0.557 0.316-1.231 0.496-1.992 0.496-0.696 0-1.321-0.15-1.846-0.418l0.096 0.978c0.025 0.221-0.13 0.449-0.342 0.514-0.21 0.06-0.381 0.112-0.381 0.112-0.555 0.163-1.288 0.352-2.072 0.352-2.694 0-4.432-1.618-4.432-4.122 0-2.81 2.229-4.068 4.442-4.068 0.927 0 1.525 0.146 2.004 0.265l0.663 0.165c0.532-0.276 1.163-0.43 1.868-0.43 0.761 0 1.435 0.178 1.992 0.494 0.04-0.221 0.236-0.391 0.474-0.391h7.741v-1.338c0-0.271 0.216-0.484 0.48-0.484h2.531c0.264 0 0.478 0.213 0.478 0.484v1.271c0.157-0.025 0.319-0.036 0.481-0.036 0.783 0 1.458 0.267 1.971 0.735 0.473-0.461 1.16-0.735 1.988-0.735 0.276 0 0.536 0.033 0.78 0.103h6.685l-0.107-1.199c-0.016-0.233 0.152-0.464 0.385-0.514 0.228-0.047 0.414-0.087 0.414-0.087 0.39-0.087 0.774-0.125 1.176-0.125 2.009 0 2.599 1.539 3.031 2.663l1.99 5.05c0.143 0.364-0.057 0.657-0.449 0.657"/></g><g transform="translate(171.29 126.59)"><path d="m0 0c-0.978 0-1.808-0.329-2.404-0.895-0.472 0.566-1.188 0.895-2.063 0.895-0.194 0-0.382-0.015-0.563-0.052v1.452c0 0.265-0.216 0.485-0.483 0.485h-2.524c-0.255 0-0.464-0.202-0.477-0.452h-4.46c-0.268 0-0.483-0.217-0.483-0.482v-2.162c0-0.264 0.215-0.48 0.483-0.48h1.008v-4.375c0-0.267 0.217-0.483 0.485-0.483h9.223c0.236 0 0.431 0.171 0.472 0.393 0.556-0.318 1.232-0.496 1.994-0.496 0.741 0 1.419 0.121 2.009 0.352l0.306 0.12c0.17 0.068 0.305 0.267 0.305 0.448v0.987h0.419v0.964 0.285c0 2.157-1.246 3.496-3.247 3.496"/></g><g transform="translate(158.32 117.26)"><path d="m0 0c-0.268 0-0.484-0.214-0.484-0.481v-5.486c0-0.265 0.216-0.482 0.484-0.482h97.774c0.265 0 0.478 0.217 0.478 0.482v5.486c0 0.267-0.213 0.481-0.478 0.481h-97.774z"/></g><path d="m168.04 115.64h1.027v-3.213h-1.027v3.213z" fill="#fff"/><g transform="translate(174.65 112.43)"><path d="m0 0-1.689 2.395h-0.108l0.025-2.395h-0.998v3.213h1.715l1.683-2.399h0.101l-0.024 2.399h0.998v-3.213h-1.703z" fill="#fff"/></g><g transform="translate(181.39 114.83)"><path d="m0 0v-2.395h-1.025v2.395h-1.433v0.818h3.892v-0.818h-1.434z" fill="#fff"/></g><g transform="translate(185.41 112.43)"><path d="m0 0v3.213h3.555v-0.757h-2.594v-0.466h2.465v-0.706h-2.465v-0.512h2.616v-0.772h-3.577z" fill="#fff"/></g><g transform="translate(194.32 114.84)"><path d="m0 0h-1.636v-0.79h1.378c0.072 0 0.145 0.007 0.216 0.007 0.352 0.006 0.446 0.018 0.446 0.402 0 0.335-0.087 0.381-0.404 0.381m1.277-0.903c-0.105-0.185-0.293-0.233-0.49-0.265 0.49-0.031 0.564-0.272 0.564-0.715v-0.525h-0.964v0.209c0 0.12 0 0.255-0.03 0.374-0.047 0.216-0.191 0.231-0.385 0.231h-1.608v-0.814h-0.979v3.213h2.393c0.171 0 0.336-0.005 0.499-0.005 0.366-0.004 0.769 0.034 0.994-0.326 0.123-0.209 0.114-0.5 0.114-0.729 0-0.211 0.003-0.463-0.108-0.648" fill="#fff"/></g><g transform="translate(201.2 112.43)"><path d="m0 0-1.689 2.395h-0.107l0.025-2.395h-0.997v3.213h1.713l1.684-2.399h0.101l-0.024 2.399h0.997v-3.213h-1.703z" fill="#fff"/></g><g transform="translate(207.69 114.89)"><path d="m0 0h-0.198l-0.616-1.215h1.437l-0.623 1.215zm1.238-2.46-0.273 0.544h-2.127l-0.274-0.544h-1.118l1.701 3.213h1.524l1.677-3.213h-1.11z" fill="#fff"/></g><g transform="translate(214.09 114.83)"><path d="m0 0v-2.395h-1.025v2.395h-1.432v0.818h3.887v-0.818h-1.43z" fill="#fff"/></g><path d="m218.1 115.64h1.026v-3.213h-1.026v3.213z" fill="#fff"/><g transform="translate(225.26 114.59)"><path d="m0 0c-0.057 0.173-0.164 0.216-0.334 0.243-0.16 0.022-0.321 0.022-0.484 0.022h-0.815c-0.742 0-0.765-0.127-0.765-0.821v-0.191c0-0.165 0.004-0.399 0.143-0.511 0.146-0.116 0.609-0.119 0.795-0.119 0.252 0 0.501 0.003 0.751 0.005 0.18 0 0.477 0 0.619 0.114 0.138 0.107 0.145 0.359 0.145 0.517 0 0.209 0.007 0.558-0.055 0.741m1.019-1.118c-0.015-0.299-0.044-0.667-0.304-0.864-0.135-0.104-0.295-0.147-0.456-0.169-0.325-0.05-0.651-0.055-0.975-0.055-0.405 0-0.809-0.005-1.216 0.005-0.336 0.004-0.851 0.01-1.131 0.219-0.261 0.19-0.29 0.565-0.304 0.864-0.008 0.189-0.015 0.377-0.015 0.566 0 0.187 0.007 0.372 0.015 0.562 0.014 0.301 0.049 0.672 0.304 0.868 0.129 0.102 0.293 0.148 0.458 0.173 0.309 0.047 0.625 0.053 0.939 0.053 0.42 0 0.834 0 1.254-0.008 0.337-0.007 0.845-0.011 1.127-0.218 0.26-0.192 0.289-0.567 0.304-0.868 0.008-0.19 0.012-0.375 0.012-0.562 0-0.189 0-0.377-0.012-0.566" fill="#fff"/></g><g transform="translate(231.82 112.43)"><path d="m0 0-1.692 2.395h-0.105l0.023-2.395h-0.996v3.213h1.715l1.681-2.399h0.103l-0.027 2.399h1.001v-3.213h-1.703z" fill="#fff"/></g><g transform="translate(238.31 114.89)"><path d="m0 0h-0.198l-0.617-1.215h1.437l-0.622 1.215zm1.237-2.46-0.275 0.544h-2.123l-0.275-0.544h-1.12l1.702 3.213h1.526l1.676-3.213h-1.111z" fill="#fff"/></g><g transform="translate(243.06 112.43)"><path d="m0 0v3.213h1.024v-2.399h2.281v-0.814h-3.305z" fill="#fff"/></g><g transform="translate(221.3 121.15)"><path d="m0 0c-0.463-0.114-0.973-0.244-1.795-0.244-1.614 0-3.48 0.816-3.48 3.105 0 2.109 1.472 3.159 3.468 3.159 0.616 0 1.213-0.138 1.795-0.314l-0.129-1.307c-0.519 0.286-1.021 0.421-1.578 0.421-1.145 0-1.892-0.832-1.892-1.959 0-1.191 0.843-1.906 2.024-1.906 0.528 0 1.066 0.137 1.509 0.31l0.078-1.265z" fill="#fff"/></g><g transform="translate(225.05 123.26)"><path d="m0 0c0 0.676-0.295 1.275-1.014 1.275-0.72 0-1.014-0.599-1.014-1.275 0-0.669 0.294-1.268 1.014-1.268 0.719 0 1.014 0.599 1.014 1.268m-3.643 0c0 1.502 1.135 2.37 2.629 2.37 1.491 0 2.629-0.868 2.629-2.37 0-1.491-1.138-2.358-2.629-2.358-1.494 0-2.629 0.867-2.629 2.358" fill="#fff"/></g><g transform="translate(226.98 125.53)"><path d="m0 0h1.421v-0.835h0.021c0.309 0.653 0.934 0.941 1.645 0.941 0.645 0 1.172-0.278 1.414-0.868 0.367 0.606 0.963 0.868 1.604 0.868 1.3 0 1.597-0.74 1.597-1.963v-2.661h-1.56v2.43c0 0.508-0.182 0.893-0.623 0.893-0.559 0-0.887-0.442-0.887-1.415v-1.908h-1.563v2.43c0 0.508-0.181 0.893-0.623 0.893-0.552 0-0.883-0.442-0.883-1.415v-1.908h-1.563v4.518z" fill="#fff"/></g><g transform="translate(237.72 124.44)"><path d="m0 0c-0.571 0-0.952-0.505-0.952-1.182 0-0.661 0.433-1.151 0.952-1.151 0.59 0 0.945 0.49 0.945 1.214 0 0.598-0.337 1.119-0.945 1.119m-2.515 1.09h1.44v-0.812h0.015c0.315 0.63 0.974 0.918 1.686 0.918 1.25 0 1.936-1.186 1.936-2.282 0-1.335-0.723-2.446-2.07-2.446-0.545 0-1.132 0.199-1.429 0.736h-0.015v-2.456h-1.563v6.342z" fill="#fff"/></g><g transform="translate(242.57 121.95)"><path d="m0 0c0.593 0 0.965 0.535 0.965 1.065-0.2 0.007-0.426 0.027-0.659 0.027-0.531 0-0.947-0.164-0.947-0.6 0-0.311 0.279-0.492 0.641-0.492m1.078-0.938c-0.012 0.241-0.034 0.477-0.034 0.712h-0.019c-0.355-0.565-0.789-0.816-1.427-0.816-0.897 0-1.697 0.442-1.697 1.42 0 1.379 1.501 1.544 2.335 1.544 0.252 0 0.529-0.024 0.729-0.059-0.009 0.616-0.47 0.781-1.033 0.781-0.503 0-1.006-0.095-1.44-0.338l-0.025 1.059c0.555 0.225 1.136 0.322 1.804 0.322 1.155 0 2.151-0.497 2.151-1.874v-1.687c0-0.352 0.017-0.708 0.089-1.064h-1.433z" fill="#fff"/></g><g transform="translate(245.48 125.53)"><path d="m0 0h1.42v-0.835h0.019c0.315 0.653 0.937 0.941 1.649 0.941 1.228 0 1.726-0.868 1.726-1.806v-2.818h-1.562v2.187c0 0.849-0.295 1.136-0.719 1.136-0.641 0-0.972-0.442-0.972-1.415v-1.908h-1.561v4.518z" fill="#fff"/></g><g transform="translate(250.63 120.38)"><path d="m0 0c0.208-0.067 0.398-0.094 0.615-0.094 0.382 0 0.678 0.223 0.788 0.622l-1.828 4.622h1.681l0.973-2.949h0.016l0.928 2.949h1.563l-1.658-4.204c-0.444-1.137-0.781-2.24-2.208-2.24-0.33 0-0.652 0.036-0.974 0.103l0.104 1.191z" fill="#fff"/></g><g transform="translate(177.48 124.27)"><path d="m0 0h0.417c0.556 0 0.996 0.202 0.996 0.836 0 0.613-0.44 0.814-0.996 0.814h-0.417v-1.65zm-1.612 2.794h1.923c1.85 0 2.715-0.621 2.715-1.983 0-1.224-0.891-1.956-2.402-1.956h-0.624v-2.114h-1.612v6.053z" fill="#fff"/></g><g transform="translate(184.17 123.26)"><path d="m0 0c0 0.676-0.296 1.275-1.015 1.275-0.723 0-1.016-0.599-1.016-1.275 0-0.669 0.293-1.268 1.016-1.268 0.719 0 1.015 0.599 1.015 1.268m-3.643 0c0 1.502 1.135 2.37 2.628 2.37 1.491 0 2.627-0.868 2.627-2.37 0-1.491-1.136-2.358-2.627-2.358-1.493 0-2.628 0.867-2.628 2.358" fill="#fff"/></g><g transform="translate(186.1 127.51)"><path d="m0 0h1.561v-3.887h0.02l1.302 1.9h1.706l-1.573-2.07 1.703-2.448h-1.89l-1.248 2.237h-0.02v-2.237h-1.561v6.505z" fill="#fff"/></g><g transform="translate(191.23 126.22)"><path d="m0 0 3.15 0.63-0.212 0.892-3.119-0.858 0.181-0.664z" fill="#fff"/></g><g transform="translate(193.65 123.7)"><path d="m0 0c0 0.521-0.243 0.946-0.867 0.946-0.567 0-0.833-0.425-0.868-0.946h1.735zm-1.718-0.885c0.087-0.623 0.566-0.866 1.325-0.866 0.426 0 0.916 0.094 1.384 0.345v-1.103c-0.506-0.199-1.079-0.284-1.659-0.284-1.491 0-2.629 0.874-2.629 2.366 0 1.494 1.016 2.363 2.42 2.363 1.675 0 2.282-1.187 2.282-2.536v-0.285h-3.123z" fill="#fff"/></g><g transform="translate(195.44 125.53)"><path d="m0 0h1.424v-0.835h0.019c0.312 0.653 0.934 0.941 1.647 0.941 0.64 0 1.17-0.278 1.414-0.868 0.365 0.606 0.964 0.868 1.604 0.868 1.302 0 1.595-0.74 1.595-1.963v-2.661h-1.559v2.43c0 0.508-0.186 0.893-0.625 0.893-0.555 0-0.884-0.442-0.884-1.415v-1.908h-1.563v2.43c0 0.508-0.181 0.893-0.622 0.893-0.556 0-0.888-0.442-0.888-1.415v-1.908h-1.562v4.518z" fill="#fff"/></g><g transform="translate(207.11 123.26)"><path d="m0 0c0 0.676-0.295 1.275-1.014 1.275-0.721 0-1.012-0.599-1.012-1.275 0-0.669 0.291-1.268 1.012-1.268 0.719 0 1.014 0.599 1.014 1.268m-3.642 0c0 1.502 1.134 2.37 2.628 2.37 1.492 0 2.627-0.868 2.627-2.37 0-1.491-1.135-2.358-2.627-2.358-1.494 0-2.628 0.867-2.628 2.358" fill="#fff"/></g><g transform="translate(209.04 125.53)"><path d="m0 0h1.422v-0.835h0.017c0.311 0.653 0.936 0.941 1.649 0.941 1.23 0 1.725-0.868 1.725-1.806v-2.818h-1.563v2.187c0 0.849-0.293 1.136-0.719 1.136-0.642 0-0.97-0.442-0.97-1.415v-1.908h-1.561v4.518z" fill="#fff"/></g><g transform="translate(160.29 125.87)"><path d="m0 0h-1.49v1.197h4.598v-1.197h-1.494v-4.855h-1.614v4.855z" fill="#fff"/></g><g transform="translate(163.74 127.51)"><path d="m0 0h1.563v-2.653h0.017c0.339 0.467 0.834 0.772 1.51 0.772 1.23 0 1.726-0.868 1.726-1.807v-2.817h-1.562v2.187c0 0.848-0.296 1.135-0.718 1.135-0.643 0-0.973-0.441-0.973-1.415v-1.907h-1.563v6.505z" fill="#fff"/></g><g transform="translate(172.17 123.7)"><path d="m0 0c0 0.521-0.241 0.946-0.869 0.946-0.56 0-0.83-0.425-0.864-0.946h1.733zm-1.716-0.885c0.085-0.623 0.562-0.866 1.327-0.866 0.425 0 0.911 0.094 1.378 0.345v-1.103c-0.501-0.199-1.076-0.284-1.656-0.284-1.492 0-2.627 0.874-2.627 2.366 0 1.494 1.012 2.363 2.419 2.363 1.672 0 2.283-1.187 2.283-2.536v-0.285h-3.124z" fill="#fff"/></g></g></g></svg>
